<svg width="1760" height="1760" xmlns="http://www.w3.org/2000/svg" xmlns:xlink="http://www.w3.org/1999/xlink" xml:space="preserve" overflow="hidden"><defs><clipPath id="clip0"><rect x="107" y="267" width="1760" height="1760"/></clipPath></defs><g clip-path="url(#clip0)" transform="translate(-107 -267)"><path d="M107 560.339C107 398.332 238.332 267 400.339 267L1573.66 267C1735.67 267 1867 398.332 1867 560.339L1867 1733.66C1867 1895.67 1735.67 2027 1573.66 2027L400.339 2027C238.332 2027 107 1895.67 107 1733.66Z" fill="#000000" fill-rule="evenodd" fill-opacity="0.101961"/><path d="M130 1714 1846 1714C1846 1875.82 1717.95 2007 1559.99 2007L416.006 2007C258.049 2007 130 1875.82 130 1714Z" fill="#A6A6A6" fill-rule="evenodd"/><path d="M130 580C130 418.18 258.049 287 416.006 287L1559.99 287C1717.95 287 1846 418.18 1846 580L130 580Z" fill="#BFBFBF" fill-rule="evenodd"/><path d="M130 606.308C130 456.187 253.415 300 399.732 300L1561.86 300C1708.18 300 1846 456.187 1846 606.308L1846 1693.55C1846 1843.67 1708.18 1990 1561.86 1990L400.942 1989.19C254.626 1989.19 130 1843.67 130 1693.55L130 606.308Z" fill="#F0F0F0" fill-rule="evenodd"/><path d="M130 594C130 432.181 258.049 301 416.006 301L1559.99 301C1717.95 301 1846 432.181 1846 594L130 594Z" fill="#D9D9D9" fill-rule="evenodd" fill-opacity="0.501961"/><rect x="130" y="594" width="1716" height="643" fill="#D9D9D9" fill-opacity="0.501961"/><path d="M1637 794.937C1622.61 794.937 1611.3 783.257 1611.3 769.172 1611.3 755.087 1622.95 743.407 1637 743.407 1651.39 743.407 1662.7 755.087 1662.7 769.172 1662.7 783.257 1651.05 794.937 1637 794.937ZM1694.92 753.026C1693.55 748.217 1691.84 743.751 1689.44 739.629L1694.92 723.482 1682.58 711.115 1666.47 716.612C1662.36 714.207 1657.91 712.49 1653.11 711.115L1645.57 696 1628.43 696 1620.89 711.115C1616.09 712.49 1611.64 714.207 1607.53 716.612L1591.42 711.115 1579.08 723.482 1584.56 739.629C1582.16 743.751 1580.45 748.217 1579.08 753.026L1564 760.584 1564 777.76 1579.08 785.318C1580.45 790.127 1582.16 794.593 1584.56 798.716L1579.08 814.861 1591.08 826.885 1607.18 821.388C1611.3 823.793 1615.75 825.511 1620.55 826.885L1628.09 842 1645.23 842 1652.77 826.885C1657.56 825.511 1662.02 823.793 1666.13 821.388L1682.24 826.885 1694.58 814.861 1689.09 798.716C1691.49 794.593 1693.55 789.784 1694.92 785.318L1710 777.76 1710 760.584 1694.92 753.026Z" fill="#00ADEF" fill-rule="evenodd"/><path d="M1559.5 920.614C1545.01 920.614 1533.62 908.854 1533.62 894.673 1533.62 880.146 1545.35 868.732 1559.5 868.732 1573.99 868.732 1585.38 880.492 1585.38 894.673 1585.38 908.854 1573.99 920.614 1559.5 920.614L1559.5 920.614ZM1612.3 864.927 1617.82 848.671 1605.39 836.219 1589.18 841.753C1585.04 839.331 1580.2 837.602 1575.72 836.219L1568.13 821 1550.87 821 1543.28 836.219C1538.45 837.602 1533.96 839.331 1529.82 841.753L1513.61 836.219 1501.53 848.324 1506.7 864.581C1504.29 868.732 1502.56 873.574 1501.18 878.071L1486 885.68 1486 902.974 1501.18 910.584C1502.56 915.426 1504.29 919.922 1506.7 924.073L1501.53 940.33 1513.61 952.435 1529.82 947.247C1533.96 949.668 1538.45 951.398 1543.28 952.781L1550.87 968 1568.13 968 1575.72 952.781C1580.55 951.398 1585.04 949.668 1589.18 947.247L1605.39 952.781 1617.47 940.33 1612.3 924.419C1614.71 920.268 1616.44 915.772 1617.82 910.93L1633 903.32 1633 886.026 1617.82 878.416C1616.44 873.574 1614.71 869.077 1612.3 864.927Z" fill="#00ADEF" fill-rule="evenodd"/><g><g><g><path d="M203.844 128.219C189.406 128.219 178.062 116.531 178.062 102.438 178.062 88.3438 189.75 76.6562 203.844 76.6562 218.281 76.6562 229.625 88.3438 229.625 102.438 229.625 116.531 217.938 128.219 203.844 128.219ZM261.938 86.2812C260.562 81.4688 258.844 77 256.438 72.875L261.938 56.7188 249.562 44.3438 233.406 49.8438C229.281 47.4375 224.812 45.7188 220 44.3438L212.438 29.2188 195.25 29.2188 187.688 44.3438C182.875 45.7188 178.406 47.4375 174.281 49.8438L158.125 44.3438 145.75 56.7188 151.25 72.875C148.844 77 147.125 81.4688 145.75 86.2812L130.625 93.8438 130.625 111.031 145.75 118.594C147.125 123.406 148.844 127.875 151.25 132L145.75 148.156 157.781 160.188 173.938 154.688C178.062 157.094 182.531 158.812 187.344 160.188L194.906 175.312 212.094 175.312 219.656 160.188C224.469 158.812 228.938 157.094 233.063 154.688L249.219 160.188 261.594 148.156 256.094 132C258.5 127.875 260.562 123.062 261.938 118.594L277.062 111.031 277.062 93.8438 261.938 86.2812Z" fill="#00ADEF" transform="matrix(-1 0 0 1 535 667)"/><path d="M126.156 253.344C111.719 253.344 100.375 241.656 100.375 227.562 100.375 213.125 112.062 201.781 126.156 201.781 140.594 201.781 151.938 213.469 151.938 227.562 151.938 241.656 140.594 253.344 126.156 253.344L126.156 253.344ZM178.75 198 184.25 181.844 171.875 169.469 155.719 174.969C151.594 172.562 146.781 170.844 142.312 169.469L134.75 154.344 117.562 154.344 110 169.469C105.188 170.844 100.719 172.562 96.5938 174.969L80.4375 169.469 68.4062 181.5 73.5625 197.656C71.1562 201.781 69.4375 206.594 68.0625 211.062L52.9375 218.625 52.9375 235.812 68.0625 243.375C69.4375 248.187 71.1562 252.656 73.5625 256.781L68.4062 272.938 80.4375 284.969 96.5938 279.812C100.719 282.219 105.188 283.938 110 285.312L117.562 300.438 134.75 300.438 142.312 285.312C147.125 283.938 151.594 282.219 155.719 279.812L171.875 285.312 183.906 272.938 178.75 257.125C181.156 253 182.875 248.531 184.25 243.719L199.375 236.156 199.375 218.969 184.25 211.406C182.875 206.594 181.156 202.125 178.75 198Z" fill="#00ADEF" transform="matrix(-1 0 0 1 535 667)"/></g></g></g><path d="M911.235 521.105C960.409 521.369 1009.65 520.467 1058.78 521.545 1070.49 543.635 1080.25 566.802 1091.72 589.068 1102.04 609.09 1110.68 630.036 1121.42 649.793 1152.14 658.616 1182.2 669.925 1210.92 684.072 1219.16 688.142 1227.09 692.851 1235.57 696.459 1239.44 696.613 1243.02 694.589 1246.66 693.511 1280.22 682.224 1313.81 671.091 1347.36 659.87 1356.13 657.076 1364.68 653.533 1373.77 651.796 1408.75 686.558 1442.97 722.135 1478.78 756.062 1477.95 758.394 1477.2 760.77 1476.52 763.168 1475.46 766.095 1474.43 769.021 1473.38 771.947 1472.83 774.213 1472.1 776.436 1471.22 778.592 1470.72 780.902 1469.88 783.102 1468.72 785.192 1468.54 786.27 1468.19 788.449 1468.01 789.549 1466.72 792.453 1465.58 795.423 1464.32 798.349 1464.15 799.45 1463.82 801.628 1463.66 802.728 1451.67 830.186 1443.67 859.25 1434.55 887.765 1431.5 896.082 1437.74 903.21 1441.16 910.206 1458.1 940.899 1469.9 974.012 1480.36 1007.37 1523.45 1028.33 1566.96 1048.42 1609.85 1069.76 1609.87 1118.94 1610.29 1168.13 1609.65 1217.31 1569.24 1237.2 1529.08 1257.59 1488.76 1277.66 1484.47 1279.55 1480.58 1282.9 1479.73 1287.74 1469.51 1324.21 1454.39 1359.15 1436.55 1392.51 1434.02 1395.85 1435.25 1399.88 1436.66 1403.4 1451.53 1446.32 1464.72 1489.87 1480.32 1532.53 1477.04 1537.37 1472.72 1541.28 1468.59 1545.35 1442.88 1571.1 1417.19 1596.86 1391.44 1622.56 1385.82 1628.28 1379.82 1633.67 1374.9 1640.03 1372.02 1637.76 1368.68 1636.42 1365.29 1635.28 1324.84 1621.44 1284.22 1608.08 1243.48 1595.21L1242.93 1594.95 1242.34 1594.92C1232.76 1592.66 1225.46 1600.42 1217.55 1604.3 1188.04 1619.92 1156.51 1631.32 1124.67 1641.19 1103.08 1683.66 1082.66 1726.72 1060.38 1768.83 1011.25 1769.05 962.145 1769.07 913.014 1768.83 891.196 1726.61 870.234 1683.92 849.163 1641.33 822.401 1632.13 795.177 1623.75 769.667 1611.23 758.725 1606.61 748.662 1600.23 737.895 1595.3 733.962 1593.34 729.524 1594.75 725.656 1596.11 710.364 1601.44 695.005 1606.67 679.317 1610.81 652.181 1620.4 624.562 1628.61 597.623 1638.73 587.538 1630.41 579.43 1619.94 568.906 1612.11 543.066 1586.39 517.117 1560.76 491.695 1534.62 505.12 1493.52 518.94 1452.53 532.585 1411.52 535.09 1404.7 538.32 1396.62 534.101 1389.8 520.017 1365.78 509.361 1339.92 499.693 1313.83 495.738 1303.58 493.914 1292.66 489.542 1282.57 447.003 1261.36 404.421 1240.21 362.08 1218.65 361.948 1169.5 362.014 1120.35 362.036 1071.19 386.777 1058.28 412.287 1046.99 437.182 1034.43 454.65 1026.31 471.502 1016.83 489.278 1009.37 498.352 983.671 506.065 957.4 518.062 932.846 523.401 919.117 531.751 906.972 538.254 893.837 532.343 876.588 527.378 858.964 519.709 842.375 519.314 839.977 518.523 837.777 517.315 835.708 517.139 834.63 516.787 832.452 516.611 831.374 515.271 828.492 514.194 825.522 513.162 822.552 512.634 820.263 511.931 818.041 511.03 815.907 510.525 813.574 509.69 811.374 508.526 809.306 508.35 808.228 507.998 806.05 507.823 804.972 506.636 802.926 505.801 800.726 505.317 798.393 504.461 796.215 503.736 794.015 503.142 791.793 502.219 789.637 501.494 787.436 500.989 785.17 499.935 782.222 498.88 779.274 497.803 776.326 497.276 774.037 496.529 771.837 495.518 769.747 494.551 765.017 493.057 760.33 493.013 755.49 495.914 751.2 500 747.965 503.626 744.313 533.75 714.237 563.764 684.028 593.91 653.974 596.613 650.365 601.227 652.983 604.698 653.688 645.37 667.35 686.106 680.838 726.777 694.501 732.292 696.569 738.29 695.183 743.124 692.125 775.775 673.005 811.568 660.156 847.493 648.803 868.586 606.164 889.856 563.59 911.235 521.105M934.745 558.794C914.157 599.519 894.272 640.662 873.31 681.168 864.522 684.446 855.095 685.854 846.285 689.198 808.36 700.375 772.413 717.515 738.686 738.042 694.697 723.697 650.884 708.692 606.918 694.215 582.902 718.329 558.733 742.333 534.783 766.535 539.375 779.362 543.132 792.497 548.076 805.192L549.592 806.072C549.724 808.756 550.339 811.33 551.459 813.795 552.053 816.039 552.778 818.239 553.657 820.395 554.228 822.639 554.975 824.839 555.854 826.996 556.447 829.218 557.194 831.418 558.051 833.596 558.645 835.84 559.37 838.041 560.27 840.175 560.886 842.419 561.611 844.619 562.446 846.819 563.039 849.042 563.764 851.242 564.643 853.398 565.126 855.73 565.961 857.93 567.148 859.977 567.324 861.077 567.697 863.233 567.873 864.333 572.202 875.026 573.981 886.599 577.958 897.446 575.871 901.296 574.091 905.3 572.443 909.37 549.592 948.622 533.266 991.503 522.039 1035.48 481.258 1055.15 440.631 1075.18 399.806 1094.8 399.433 1128.35 399.763 1161.93 399.653 1195.5 439.379 1215.64 479.324 1235.42 519.116 1255.44 522.962 1257.02 523.159 1261.77 524.39 1265.23 535.574 1308.75 553.525 1350.35 576.662 1388.83 580.09 1393.32 576.332 1398.45 575.168 1403.05 561.787 1443.51 547.944 1483.84 534.958 1524.43 551.899 1540.67 568.18 1557.59 584.88 1574.09 589.648 1578.62 593.756 1583.97 599.403 1587.49 601.688 1589.45 603.798 1591.6 605.797 1593.87 608.852 1593.65 612.125 1594 614.784 1592.15 617.025 1591.54 619.222 1590.81 621.376 1589.97 623.705 1589.47 625.902 1588.63 627.945 1587.47 629.044 1587.29 631.197 1586.94 632.274 1586.76 634.339 1585.6 636.536 1584.76 638.866 1584.25 640.997 1583.35 643.216 1582.63 645.501 1582.1 648.424 1581.02 651.368 1579.99 654.29 1578.91 656.553 1578.36 658.772 1577.65 660.926 1576.77 663.167 1576.16 665.364 1575.41 667.518 1574.57 669.759 1573.98 671.956 1573.25 674.087 1572.35 676.416 1571.84 678.614 1571.03 680.701 1569.86 681.777 1569.69 683.931 1569.34 685.008 1569.16 687.073 1567.97 689.27 1567.14 691.599 1566.65 693.753 1565.77 695.972 1565.05 698.235 1564.5 701.135 1563.37 704.057 1562.36 707.002 1561.44 707.617 1561.26 708.825 1560.91 709.441 1560.73 719.35 1559.77 728.359 1554.95 737.895 1552.37 778.236 1575.65 821.214 1594.51 866.28 1606.45 869.861 1607.66 874.739 1607.95 876.562 1611.87 896.865 1651.8 916.156 1692.26 936.898 1731.93 970.275 1731.71 1003.65 1731.75 1037.03 1731.91 1057.15 1691.01 1077.96 1650.41 1097.91 1609.42 1108.24 1605.75 1119.07 1603.64 1129.4 1599.92 1166.75 1588.76 1201.73 1571.14 1235.19 1551.38 1235.92 1552.04 1237.41 1553.41 1238.14 1554.09 1239.39 1554.16 1241.9 1554.31 1243.15 1554.4 1245.96 1555.76 1248.95 1556.84 1251.94 1557.92 1254.18 1558.45 1256.4 1559.15 1258.57 1560.05 1260.9 1560.51 1263.08 1561.35 1265.14 1562.56 1266.22 1562.74 1268.4 1563.09 1269.49 1563.26 1271.54 1564.45 1273.73 1565.29 1276.09 1565.75 1278.22 1566.63 1280.41 1567.36 1282.68 1567.95 1284.79 1568.83 1286.98 1569.58 1289.23 1570.17 1291.38 1571.01 1293.6 1571.73 1295.86 1572.35 1297.97 1573.27 1300.17 1573.98 1302.45 1574.51 1305.44 1575.54 1308.41 1576.62 1311.29 1577.96 1312.36 1578.14 1314.54 1578.49 1315.61 1578.67 1317.66 1579.83 1319.85 1580.67 1322.21 1581.17 1324.34 1582.01 1326.53 1582.76 1328.8 1583.37 1330.93 1584.21 1333.13 1584.94 1335.39 1585.57 1337.52 1586.41 1339.72 1587.16 1341.98 1587.77 1344.11 1588.61 1346.31 1589.36 1348.57 1589.97 1350.7 1590.85 1352.92 1591.58 1355.19 1592.15 1358.06 1593.41 1361.65 1593.54 1363.84 1596.13 1365.12 1594.81 1366.39 1593.54 1367.69 1592.28 1371.14 1590.7 1373.64 1587.8 1376.3 1585.18 1396.45 1564.63 1417.1 1544.56 1437.14 1523.92 1422.36 1480.45 1408.36 1436.69 1393.37 1393.28 1396.85 1385.82 1401.22 1378.87 1404.87 1371.52 1424.68 1334.95 1439.52 1295.77 1449.6 1255.46 1490.34 1234.67 1531.45 1214.56 1572.23 1193.83 1571.94 1160.08 1572.58 1126.35 1571.9 1092.62 1547.51 1082 1523.93 1069.68 1499.83 1058.48 1482.56 1050.12 1465 1042.13 1448.09 1033.17 1440.9 1005.87 1432.29 978.764 1420.44 953.066 1412.75 934.541 1402.19 917.445 1392.87 899.733L1391.29 900.306C1391.57 897.049 1390.8 893.331 1393.33 890.713 1393.51 889.635 1393.86 887.479 1394.03 886.379 1395.31 883.496 1396.38 880.526 1397.46 877.556 1397.88 875.18 1398.69 872.98 1399.9 870.911 1400.08 869.833 1400.43 867.677 1400.6 866.599 1401.79 864.531 1402.62 862.331 1403.06 859.977 1404.1 857.006 1405.13 854.08 1406.23 851.154 1406.78 848.865 1407.48 846.665 1408.38 844.509 1408.97 842.265 1409.7 840.065 1410.58 837.909 1411.13 835.642 1411.87 833.464 1412.8 831.33 1413.37 829.064 1414.09 826.864 1414.97 824.708 1415.54 822.441 1416.29 820.263 1417.17 818.107 1417.76 815.863 1418.49 813.663 1419.37 811.507 1419.83 809.152 1420.66 806.974 1421.87 804.928 1422.05 803.828 1422.4 801.65 1422.6 800.571 1423.89 797.689 1424.95 794.719 1426 791.749 1426.73 788.735 1427.74 785.808 1428.86 782.926 1431.63 777.668 1433.52 772.013 1435.49 766.425 1411.39 742.311 1387.4 718.109 1363.21 694.105 1321.5 708.296 1279.58 721.783 1237.96 736.194 1235.39 736.854 1232.43 738.505 1229.92 736.7 1204.06 722.135 1177.41 708.78 1149.48 698.549 1131.73 691.201 1112.74 687.02 1094.66 680.838 1074.49 640.42 1055.2 599.497 1035.36 558.904 1001.83 558.618 968.275 558.816 934.745 558.794Z" fill-rule="evenodd"/><path d="M929.077 931.614C946.867 928.559 964.681 924.865 982.824 925.063 1003.1 924.47 1023.14 928.141 1042.91 932.23L1045.65 932.89C1050.18 933.879 1054.67 935.176 1058.72 937.506 1062.39 938.693 1066.11 939.814 1069.82 940.869 1092.1 951.333 1113.81 963.556 1131.91 980.417 1141.47 990.728 1152.71 999.565 1160.47 1011.44 1174.86 1029.18 1184.58 1050.08 1193.33 1071.01 1194.69 1075.65 1195.81 1080.4 1198.1 1084.73 1200.15 1101.08 1204.68 1117.15 1204.9 1133.75 1205.01 1147.84 1205.45 1162.02 1203.07 1175.98 1201.97 1185.68 1198.91 1195.06 1198.01 1204.8 1196.76 1207.66 1196.17 1210.76 1195.62 1213.84 1187.85 1229.09 1181.83 1245.27 1172.59 1259.76 1161.97 1277.35 1148.47 1292.98 1133.8 1307.29 1100.41 1338.48 1056.76 1358.16 1011.48 1363.65 977.304 1367.19 942.139 1363.94 909.878 1351.76 868.115 1336.46 831.367 1308.28 805.483 1272.14 799.941 1264.66 795.147 1256.68 789.693 1249.14 789.495 1248.04 789.121 1245.84 788.945 1244.77 785.427 1238.3 782.216 1231.66 778.917 1225.11 776.894 1218.32 774.849 1211.53 772.1 1205 771.814 1202.98 771.506 1200.98 771.242 1199 770.34 1196.05 769.482 1193.08 768.625 1190.16 766.844 1184.16 768.141 1177.61 765.48 1171.85 764.688 1159.19 765.37 1146.5 765.084 1133.82 765.172 1127.4 764.293 1120.74 766.734 1114.63 766.953 1105.04 771.198 1096.36 773.221 1087.15 780.677 1058.24 795.345 1031.68 812.718 1007.61 834.402 982.66 860.374 961.05 890.393 946.871 902.774 940.518 916.343 937.11 929.077 931.614M975.105 964.326C969.255 964.567 963.428 964.436 957.599 964.677 954.037 968.392 948.099 965.117 944.339 968.48 941.348 968.986 938.005 968.59 935.52 970.679 932.595 971.052 929.494 970.899 926.899 972.503 906.579 977.054 888.502 988.903 872.008 1001.28 868.291 1003.81 866.862 1008.51 863.189 1011.11 851.138 1019 842.539 1030.89 834.292 1042.45 820.569 1063.62 807.133 1086.95 806.626 1112.84 801.854 1118.49 807.55 1127.02 802.8 1132.7 801.81 1144 801.26 1155.62 804.163 1166.7 804.911 1170.77 803.9 1175.32 806.473 1178.93 807 1181.87 806.517 1185.28 808.826 1187.65 809.002 1189.81 809.2 1191.96 809.398 1194.14 812.454 1198.36 812.344 1203.79 814.06 1208.56 835.854 1268.31 891.229 1314.92 954.301 1324.48 970.223 1327.97 986.629 1326.22 1002.79 1326.48 1036.26 1323.64 1068.39 1310.26 1095.33 1290.4 1104.99 1283.52 1112.53 1274.25 1121.37 1266.42 1127.84 1260.84 1132.57 1253.6 1137.47 1246.68 1144.84 1236.76 1147.26 1224.26 1154.14 1214.03 1154.27 1212.94 1154.56 1210.74 1154.71 1209.64 1155.9 1207.59 1156.76 1205.39 1157.24 1203.06 1158.08 1200.89 1158.8 1198.69 1159.42 1196.45 1161.42 1193 1160.36 1188.58 1162.89 1185.39 1163.07 1183.19 1163.24 1181.02 1163.44 1178.86 1167.99 1173.91 1162.67 1166.04 1167.4 1161.19 1167.69 1150.96 1167.69 1140.72 1167.4 1130.52 1162.45 1124.96 1168.17 1116.43 1163.6 1110.67 1163.07 1107.68 1163.44 1104.36 1161.42 1101.85 1160.98 1098.86 1161.04 1095.7 1159.42 1093.06 1158.93 1090.71 1158.1 1088.53 1156.93 1086.49 1156.76 1085.39 1156.4 1083.23 1156.23 1082.13 1154.95 1080.09 1154.18 1077.87 1153.9 1075.47 1152.01 1071.91 1150.25 1068.28 1148.33 1064.72 1147.21 1062.37 1146.11 1060.04 1145.1 1057.67 1139.69 1049.36 1135.01 1040.32 1127.86 1033.33 1127.53 1036.87 1127.18 1040.43 1126.78 1043.97 1126.65 1039.33 1126.96 1034.72 1127.33 1030.12 1118.51 1020.51 1109.41 1011.15 1099.58 1002.58 1096.5 1002.82 1093.44 1003.06 1090.41 1003.3 1092.98 1002.77 1095.58 1002.27 1098.19 1001.79 1069.25 977.406 1031.67 963.886 993.93 962.545 987.772 962.853 980.405 960.259 975.105 964.326Z" fill-rule="evenodd"/><path d="M935.09 559.046C968.631 559.068 1002.19 558.87 1035.73 559.156 1055.58 599.704 1074.88 640.582 1095.06 680.954 1113.15 687.13 1132.14 691.305 1149.89 698.646 1177.83 708.865 1204.49 722.205 1230.36 736.754 1232.87 738.557 1235.83 736.908 1238.41 736.249 1280.03 721.854 1321.97 708.382 1363.69 694.206 1387.89 718.183 1411.89 742.358 1436 766.446 1434.02 772.028 1432.13 777.676 1429.36 782.928 1411.98 795.346 1395.47 809.279 1376.74 819.784 1368.44 826.553 1358.04 829.718 1349.34 835.872 1339.25 841.718 1328.35 846.069 1318.26 851.937 1317.2 852.069 1315.09 852.288 1314.04 852.42 1308.92 855.366 1303.53 857.761 1298.48 860.75 1297.4 860.838 1295.24 861.013 1294.17 861.101 1291.93 862.486 1289.73 863.87 1287.53 865.255 1286.43 865.321 1284.25 865.409 1283.18 865.453 1280.96 866.86 1278.74 868.244 1276.54 869.651 1275.46 869.717 1273.29 869.804 1272.19 869.87 1269.95 871.255 1267.75 872.639 1265.53 874.046 1264.47 874.112 1262.32 874.266 1261.24 874.332 1259.04 875.585 1256.82 876.815 1254.63 878.046 1252.32 878.749 1250.03 879.496 1247.77 880.266 1246.76 880.463 1244.76 880.903 1243.75 881.101 1240.71 882.354 1237.64 883.518 1234.62 884.793 1233.61 884.991 1231.61 885.386 1230.6 885.562 1228.4 886.419 1226.21 887.254 1224.01 888.067 1221.77 888.793 1219.57 889.518 1217.37 890.243 1215.13 890.924 1212.89 891.584 1210.65 892.221 1208.43 893.386 1206.23 894.529 1204.03 895.672 1200.95 896.155 1197.88 896.683 1194.95 897.693 1193.99 897.979 1192.05 898.573 1191.06 898.858 1187.26 900.023 1183.41 901.034 1179.61 902.199 1178.64 902.484 1176.69 903.034 1175.7 903.32 1172.8 904.199 1169.85 904.924 1166.91 905.605 1163.06 906.638 1159.21 907.605 1155.43 908.748 1154.44 909.056 1152.51 909.627 1151.54 909.913 1148.62 910.792 1145.7 911.539 1142.77 912.308 1138.18 913.341 1133.48 913.957 1128.99 915.341 1126.97 915.715 1124.97 916.089 1122.99 916.462 1118.46 917.847 1113.74 918.418 1109.19 919.671 1105.45 920.22 1101.65 920.462 1098.2 922.044 1095.47 922.352 1092.75 922.638 1090.07 922.967 1085.96 925.033 1081.32 924.703 1076.9 925.187 1072.79 927.231 1068.11 926.879 1063.71 927.385 1058.9 929.714 1053.47 928.923 1048.35 929.517 1047.05 930.132 1044.46 931.385 1043.16 932 1023.4 927.912 1003.38 924.242 983.115 924.836 964.982 924.637 947.179 928.33 929.398 931.385 870.976 924.725 813.127 912.99 756.464 897.254 736.287 889.804 715.099 885.43 695.252 877.035 673.47 869.101 651.732 861.035 630.72 851.234 611.29 840.992 590.959 832.509 572.321 820.883 564.826 815.894 557.551 810.642 549.814 806.049L548.297 805.169C543.352 792.489 539.594 779.368 535 766.555 558.957 742.38 583.135 718.403 607.158 694.316 651.139 708.777 694.966 723.766 738.968 738.095 772.707 717.59 808.665 700.47 846.601 689.305 855.415 685.965 864.844 684.558 873.636 681.284 894.604 640.824 914.496 599.726 935.09 559.046Z" fill="#41B349" fill-rule="evenodd"/><path d="M1384.04 903.562C1386.59 902.528 1389.16 901.473 1391.8 900.572L1393.39 900C1402.72 917.697 1413.3 934.779 1421 953.29 1432.86 978.968 1441.49 1006.05 1448.68 1033.33 1465.62 1042.28 1483.21 1050.26 1500.5 1058.62 1524.64 1069.81 1548.25 1082.12 1572.67 1092.74 1573.35 1126.44 1572.71 1160.14 1573 1193.86 1532.16 1214.57 1490.99 1234.67 1450.2 1255.44 1440.1 1295.72 1425.25 1334.87 1405.4 1371.41 1401.75 1378.75 1397.37 1385.7 1393.89 1393.15 1408.9 1436.53 1422.92 1480.25 1437.72 1523.7 1417.66 1544.32 1396.97 1564.37 1376.8 1584.9 1374.14 1587.52 1371.63 1590.42 1368.17 1592 1349.23 1575.84 1333.98 1556.1 1318.75 1536.6 1298.11 1506.64 1278.14 1476.01 1262.36 1443.12 1230.89 1376.38 1209.22 1304.75 1200.64 1231.35 1197.89 1222.82 1198.31 1213.83 1198 1204.99 1198.9 1195.25 1201.96 1185.86 1203.06 1176.17 1205.44 1162.21 1205 1148.03 1204.89 1133.94 1204.67 1117.34 1200.13 1101.27 1198.09 1084.91 1203.5 1079.41 1198 1070.53 1202.47 1064.4 1203.04 1058.55 1201.63 1052.22 1204.54 1046.85 1204.82 1044.11 1205.06 1041.36 1205.39 1038.63 1207.92 1033.62 1206.47 1027.73 1208.76 1022.63 1209.29 1018.94 1209.44 1015.11 1211.05 1011.66 1211.36 1009.64 1211.69 1007.61 1212.04 1005.61 1213.25 1001.79 1214.24 997.918 1215.49 994.115 1215.78 992.07 1216.11 990.048 1216.46 988.047 1218.33 984.552 1218.15 980.529 1218.35 976.703 1220.14 971.251 1225.06 968.591 1230.34 967.426 1232.57 966.788 1234.81 966.129 1237.03 965.447 1239.23 964.59 1241.43 963.733 1243.63 962.875 1244.71 962.721 1246.83 962.435 1247.9 962.282 1250.06 960.941 1252.26 959.599 1254.44 958.28 1255.49 958.127 1257.61 957.819 1258.66 957.665 1260.86 956.807 1263.09 955.994 1265.33 955.247 1268.37 954.169 1271.42 953.114 1274.44 951.905 1275.45 951.685 1277.45 951.201 1278.44 950.982 1280.71 950.212 1283.02 949.465 1285.33 948.783 1287.53 947.552 1289.71 946.321 1291.93 945.09 1293.01 945.002 1295.21 944.826 1296.29 944.76 1298.47 943.375 1300.67 941.99 1302.87 940.627 1303.99 940.561 1306.19 940.429 1307.29 940.363 1309.47 938.978 1311.65 937.615 1313.85 936.252 1314.95 936.142 1317.13 935.966 1318.23 935.878 1321.9 933.79 1325.62 931.789 1329.34 929.745 1330.39 929.613 1332.55 929.371 1333.63 929.239 1338.58 926.359 1343.79 923.919 1348.9 921.303 1352.68 919.456 1356.44 917.588 1360.23 915.719 1363.13 914.202 1366.08 912.751 1369.03 911.3 1374.05 908.772 1379.15 906.354 1384.04 903.562Z" fill="#708FC5" fill-rule="evenodd"/><path d="M521.724 1035.09C532.98 991.119 549.347 948.244 572.256 909 619.593 933.418 669.816 951.522 720.546 967.536 722.198 987.071 727.815 1006.1 729.599 1025.66 730.943 1040.39 734.335 1054.93 734.115 1069.78 734.599 1075.68 736.516 1081.38 736.317 1087.36 737.33 1124.25 737.022 1161.16 736.626 1198.05 731.691 1207.07 737.661 1218.16 732.881 1227.24 732.705 1234.42 731.978 1241.54 730.238 1248.52 718.122 1342.23 690.676 1434.31 646.114 1517.79 631.708 1541.6 618.668 1566.7 599.284 1587 593.622 1583.48 589.503 1578.14 584.723 1573.6 567.982 1557.11 551.66 1540.19 534.677 1523.95 547.695 1483.37 561.572 1443.05 574.987 1402.59 576.155 1397.99 579.921 1392.87 576.485 1388.38 553.29 1349.91 535.293 1308.31 524.081 1264.8 522.848 1261.34 522.649 1256.59 518.794 1255.01 478.902 1234.99 438.856 1215.21 399.03 1195.08 399.14 1161.52 398.81 1127.95 399.184 1094.4 440.112 1074.78 480.841 1054.76 521.724 1035.09Z" fill="#DA4A37" fill-rule="evenodd"/><path d="M1243 1595 1243.52 1595.08 1244 1596C1243.75 1595.69 1243.25 1595.23 1243 1595Z" fill="#DA4A37" fill-rule="evenodd"/><path d="M805.174 1272C831.048 1308.13 867.781 1336.3 909.526 1351.59 941.774 1363.76 976.924 1367.02 1011.09 1363.48 1056.35 1357.99 1099.98 1338.32 1133.35 1307.14 1134.36 1309.42 1135.18 1311.75 1135.86 1314.17 1147.58 1366.38 1166 1416.9 1187.47 1465.81 1201.63 1495.04 1217.35 1523.43 1235 1550.68 1201.52 1570.41 1166.52 1588.01 1129.15 1599.15 1118.82 1602.87 1107.98 1604.98 1097.65 1608.65 1077.69 1649.59 1056.88 1690.13 1036.74 1730.98 1003.35 1730.82 969.956 1730.78 936.564 1731 915.813 1691.38 896.512 1650.97 876.2 1611.09 874.375 1607.17 869.495 1606.89 865.912 1605.68 820.826 1593.75 777.828 1574.92 737.468 1551.67 727.927 1554.24 718.914 1559.05 709 1560.02 714.803 1553.27 717.837 1544.81 721.992 1537.08 765.254 1454.56 790.666 1363.74 805.174 1272Z" fill="#F6CA38" fill-rule="evenodd"/></g></svg>