<?xml version="1.0" encoding="UTF-8" ?>
<!DOCTYPE svg PUBLIC "-//W3C//DTD SVG 1.1//EN" "http://www.w3.org/Graphics/SVG/1.1/DTD/svg11.dtd">
<svg width="389pt" height="389pt" viewBox="0 0 389 389" version="1.1" xmlns="http://www.w3.org/2000/svg">
<g id="#ffffffff">
<path fill="#ffffff" opacity="1.00" d=" M 176.62 1.79 C 187.93 -0.07 199.47 -0.50 210.87 0.78 C 232.07 3.19 252.88 8.57 272.81 16.14 C 285.91 21.12 298.75 27.02 310.48 34.76 C 318.11 39.78 325.46 45.53 330.89 52.96 C 333.64 56.77 335.89 61.19 336.01 65.98 C 336.25 71.34 333.66 76.31 330.54 80.49 C 323.88 89.27 314.55 95.52 305.27 101.22 C 285.57 112.54 263.99 120.27 242.06 125.99 C 229.23 129.17 216.19 131.60 203.01 132.73 C 185.52 133.89 168.03 131.38 150.94 127.83 C 137.19 125.08 123.71 121.08 110.51 116.38 C 97.63 111.63 84.95 106.09 73.40 98.61 C 66.48 94.05 59.80 88.82 54.99 81.98 C 52.85 78.71 50.98 75.01 51.05 71.00 C 51.01 65.52 53.84 60.52 57.03 56.25 C 66.10 45.00 78.54 37.16 91.02 30.22 C 117.79 16.29 146.82 6.59 176.62 1.79 Z" />
<path fill="#ffffff" opacity="1.00" d=" M 356.36 81.04 C 376.98 112.40 387.96 149.79 389.00 187.23 L 389.00 197.49 C 387.93 230.94 378.85 264.22 362.37 293.37 C 355.07 305.89 346.55 318.01 335.26 327.25 C 331.59 329.89 327.63 332.99 322.90 333.02 C 317.00 331.86 312.08 328.00 307.50 324.31 C 297.83 315.91 290.01 305.60 283.28 294.77 C 273.19 278.32 266.03 260.16 261.39 241.46 C 253.49 209.65 254.61 175.93 263.23 144.38 C 285.36 137.31 307.17 128.47 326.46 115.34 C 338.94 106.59 350.85 95.61 356.36 81.04 Z" />
<path fill="#ffffff" opacity="1.00" d=" M 6.63 147.19 C 12.17 126.37 20.71 106.34 32.17 88.08 C 40.98 105.46 57.80 116.82 74.56 125.69 C 88.41 132.89 103.10 138.34 117.97 143.03 C 124.84 175.93 124.68 210.25 117.68 243.12 C 113.87 261.08 108.16 278.70 100.00 295.18 C 94.59 305.87 88.30 316.28 80.02 325.02 C 76.94 328.06 73.61 331.03 69.56 332.71 C 66.92 333.72 64.35 332.12 62.01 331.08 C 54.63 327.11 48.57 321.16 42.99 315.00 C 23.38 292.60 10.80 264.64 4.23 235.77 C -2.17 206.63 -1.14 175.97 6.63 147.19 Z" />
<path fill="#ffffff" opacity="1.00" d=" M 142.86 150.05 C 158.07 153.37 173.50 155.94 189.08 156.45 C 205.68 157.07 222.21 154.55 238.38 151.03 C 230.21 188.25 231.96 227.74 244.27 263.85 C 252.57 289.03 265.44 312.95 283.40 332.57 C 290.77 340.51 299.23 347.57 308.96 352.44 C 277.34 375.30 238.74 388.27 199.73 389.00 L 189.56 389.00 C 151.12 387.81 113.15 375.00 82.04 352.37 C 92.33 347.02 100.19 338.13 106.93 328.90 C 117.96 313.72 125.88 296.53 132.03 278.88 C 146.15 237.70 150.03 193.01 142.86 150.05 Z" />
</g>
</svg>
