<svg width="83" height="82" xmlns="http://www.w3.org/2000/svg" xmlns:xlink="http://www.w3.org/1999/xlink" xml:space="preserve" overflow="hidden"><defs><linearGradient x1="2383.07" y1="1516.83" x2="2423.93" y2="1612.17" gradientUnits="userSpaceOnUse" spreadMethod="reflect" id="fill0"><stop offset="0" stop-color="#E4E4E4"/><stop offset="0.5" stop-color="#F0F0F0"/><stop offset="1" stop-color="#FFFFFF"/></linearGradient></defs><g transform="translate(-2362 -1524)"><path d="M2384.05 1526C2379.84 1526 2376.47 1526.08 2373.56 1526.49 2370.64 1526.9 2368 1527.71 2366 1529.37 2364.02 1531.04 2363.03 1533.26 2362.55 1535.71 2362.06 1538.16 2361.98 1540.98 2362 1544.51L2362 1570.65 2362 1586.5C2361.98 1590.03 2362.06 1592.85 2362.55 1595.29 2363.03 1597.74 2364.02 1599.96 2366 1601.63 2368 1603.29 2370.64 1604.1 2373.56 1604.51 2376.47 1604.92 2379.84 1605 2384.05 1605L2421.96 1605C2426.17 1605 2429.52 1604.92 2432.43 1604.51 2435.34 1604.1 2437.99 1603.29 2439.98 1601.62 2441.96 1599.96 2442.93 1597.74 2443.42 1595.3 2443.91 1592.85 2444 1590.03 2444 1586.5L2444 1570.65 2444 1544.5C2444 1540.97 2443.91 1538.15 2443.42 1535.71 2442.93 1533.26 2441.96 1531.04 2439.98 1529.38 2437.99 1527.71 2435.34 1526.9 2432.43 1526.49 2429.52 1526.08 2426.17 1526 2421.96 1526Z" fill="#000000" fill-rule="evenodd" fill-opacity="0.101961"/><path d="M2383.5 1525C2365.82 1525 2363.91 1526.49 2364 1540.98L2364 1561.07 2364 1588.02C2363.91 1602.52 2365.82 1604 2383.5 1604L2423.51 1604C2441.18 1604 2443 1602.52 2443 1588.02L2443 1561.07 2443 1540.98C2443 1526.49 2441.18 1525 2423.51 1525Z" fill="url(#fill0)" fill-rule="evenodd"/><path d="M2424.53 1604.5C2440.58 1604.5 2443.58 1603.05 2443.5 1588.88L2443.5 1561.57 2443.5 1541.13C2443.58 1526.95 2440.58 1525.5 2424.53 1525.5L2383.47 1525.5C2367.43 1525.5 2364.5 1526.95 2364.5 1541.13L2364.5 1561.57 2364.5 1588.88C2364.5 1603.05 2367.43 1604.5 2383.47 1604.5Z" stroke="#000000" stroke-width="3.4375" stroke-miterlimit="8" stroke-opacity="0.4" fill="none" fill-rule="evenodd"/><path d="M2397.65 1542.09C2398.5 1540.4 2399.33 1538.7 2400.19 1537.01 2402.37 1537 2404.55 1537 2406.72 1537.01 2407.38 1538.26 2407.93 1539.57 2408.59 1540.81 2408.9 1541.38 2409.09 1542 2409.42 1542.56 2409.51 1542.71 2409.71 1542.74 2409.86 1542.8 2411.37 1543.22 2412.83 1543.8 2414.19 1544.57 2414.36 1544.68 2414.57 1544.75 2414.76 1544.66 2415.53 1544.39 2416.31 1544.14 2417.09 1543.89 2418.13 1543.48 2419.24 1543.23 2420.28 1542.81 2420.41 1542.76 2420.59 1542.69 2420.69 1542.83 2422.16 1544.29 2423.62 1545.78 2425.1 1547.23 2425.26 1547.35 2425.15 1547.55 2425.12 1547.7 2424.82 1548.53 2424.6 1549.39 2424.24 1550.19 2423.9 1551.2 2423.56 1552.2 2423.27 1553.22 2423.18 1553.44 2423.33 1553.65 2423.42 1553.84 2423.73 1554.42 2424.01 1555.01 2424.3 1555.6 2424.5 1556.07 2424.65 1556.55 2424.84 1557.02 2425.02 1557.46 2425.08 1557.93 2425.27 1558.36 2425.63 1558.65 2426.08 1558.77 2426.48 1559 2427.31 1559.35 2428.1 1559.78 2428.92 1560.17 2429.57 1560.45 2430.19 1560.77 2430.83 1561.08 2431.02 1561.13 2430.99 1561.34 2431 1561.49 2430.99 1563.56 2431.01 1565.62 2430.99 1567.68 2429.22 1568.6 2427.41 1569.47 2425.63 1570.38 2425.25 1570.56 2425.25 1571.04 2425.12 1571.39 2424.72 1572.53 2424.29 1573.67 2423.72 1574.73 2423.59 1575.02 2423.4 1575.3 2423.32 1575.61 2423.37 1575.97 2423.54 1576.31 2423.64 1576.66 2424.15 1578.32 2424.77 1579.95 2425.26 1581.61 2425.07 1581.92 2424.76 1582.14 2424.52 1582.41 2423.25 1583.7 2421.93 1584.96 2420.7 1586.29 2418.66 1585.61 2416.64 1584.85 2414.56 1584.32 2414.09 1584.48 2413.72 1584.81 2413.27 1584.99 2412.3 1585.46 2411.3 1585.86 2410.26 1586.16 2409.96 1586.25 2409.61 1586.34 2409.48 1586.67 2408.74 1588.14 2408.01 1589.61 2407.28 1591.08 2407.12 1591.38 2407 1591.7 2406.8 1591.97 2406.63 1592.01 2406.45 1592 2406.28 1592 2404.34 1591.99 2402.4 1592 2400.46 1591.99 2400.18 1592.04 2400.1 1591.73 2400 1591.54 2399.74 1590.86 2399.33 1590.26 2399.04 1589.59 2398.86 1589.19 2398.66 1588.79 2398.45 1588.41 2398.1 1587.8 2397.87 1587.13 2397.51 1586.52 2397.4 1586.32 2397.17 1586.26 2396.97 1586.2 2395.55 1585.8 2394.18 1585.23 2392.89 1584.52 2392.68 1584.43 2392.45 1584.24 2392.21 1584.35 2391.6 1584.55 2390.99 1584.76 2390.37 1584.93 2389.5 1585.16 2388.67 1585.52 2387.81 1585.78 2387.32 1585.92 2386.86 1586.11 2386.37 1586.24 2386.12 1586.11 2385.95 1585.87 2385.75 1585.68 2384.41 1584.46 2383.18 1583.13 2381.88 1581.87 2381.76 1581.78 2381.69 1581.64 2381.76 1581.49 2382.09 1580.59 2382.35 1579.67 2382.67 1578.76 2382.99 1577.92 2383.23 1577.04 2383.53 1576.18 2383.59 1575.93 2383.77 1575.64 2383.61 1575.38 2382.81 1573.96 2382.16 1572.45 2381.74 1570.87 2381.69 1570.74 2381.65 1570.57 2381.51 1570.52 2379.82 1569.68 2378.13 1568.83 2376.45 1567.99 2376.26 1567.87 2375.95 1567.78 2376.01 1567.5 2376.01 1565.41 2375.99 1563.32 2376.02 1561.23 2376.56 1560.95 2377.12 1560.68 2377.67 1560.39 2379 1559.84 2380.24 1559.09 2381.57 1558.53 2381.89 1557.92 2381.99 1557.22 2382.26 1556.59 2382.62 1555.59 2383.07 1554.62 2383.61 1553.71 2383.83 1553.39 2383.61 1553.03 2383.52 1552.71 2382.93 1551.04 2382.31 1549.38 2381.82 1547.69 2381.78 1547.52 2381.7 1547.31 2381.87 1547.2 2383.18 1545.89 2384.49 1544.58 2385.79 1543.27 2385.98 1543.1 2386.14 1542.88 2386.37 1542.75 2388.1 1543.26 2389.79 1543.89 2391.51 1544.44 2391.82 1544.52 2392.12 1544.7 2392.44 1544.68 2392.78 1544.56 2393.08 1544.36 2393.39 1544.18 2394.6 1543.55 2395.89 1543.09 2397.19 1542.7 2397.48 1542.64 2397.52 1542.31 2397.65 1542.09M2401.2 1538.77C2400.93 1539.2 2400.74 1539.67 2400.51 1540.11 2399.86 1541.43 2399.19 1542.74 2398.55 1544.05 2396.53 1544.54 2394.59 1545.36 2392.81 1546.42 2392.52 1546.64 2392.2 1546.41 2391.91 1546.33 2390.52 1545.87 2389.14 1545.39 2387.75 1544.94 2387.44 1544.85 2387.14 1544.7 2386.82 1544.66 2386.69 1544.69 2386.61 1544.8 2386.52 1544.88 2385.63 1545.78 2384.73 1546.68 2383.83 1547.57 2383.73 1547.68 2383.59 1547.8 2383.67 1547.96 2383.83 1548.47 2383.98 1548.99 2384.19 1549.48 2385.04 1550.12 2385.98 1550.68 2386.96 1551.11 2387.94 1551.61 2388.94 1552.07 2389.99 1552.42 2390.8 1552.76 2391.62 1553.06 2392.47 1553.28 2392.99 1553.4 2393.47 1553.65 2394 1553.76 2394.69 1553.91 2395.38 1554.11 2396.08 1554.26 2397.74 1554.58 2399.39 1554.96 2401.08 1555.07 2402.35 1554.8 2403.66 1554.7 2404.95 1554.91 2405.27 1554.95 2405.59 1555.06 2405.92 1555.07 2407.59 1554.84 2409.24 1554.55 2410.87 1554.11 2411.85 1553.84 2412.84 1553.62 2413.78 1553.24 2414.7 1552.93 2415.62 1552.65 2416.5 1552.25 2418.8 1551.36 2421 1550.16 2422.92 1548.6 2423.16 1548.41 2423.21 1548.09 2423.32 1547.82 2422.38 1546.83 2421.4 1545.89 2420.45 1544.92 2420.32 1544.8 2420.17 1544.59 2419.97 1544.68 2418.1 1545.27 2416.25 1545.95 2414.38 1546.52 2413.89 1546.32 2413.44 1546.02 2412.96 1545.8 2411.54 1545.06 2410.03 1544.51 2408.49 1544.1 2408.32 1544.08 2408.23 1543.94 2408.17 1543.8 2407.78 1542.96 2407.36 1542.14 2406.97 1541.3 2406.52 1540.47 2406.19 1539.58 2405.72 1538.77 2405.65 1538.61 2405.45 1538.65 2405.31 1538.63 2404.08 1538.63 2402.84 1538.63 2401.6 1538.63 2401.46 1538.65 2401.27 1538.61 2401.2 1538.77M2418.64 1555.01C2417.93 1555.35 2417.19 1555.63 2416.45 1555.9 2415.58 1556.16 2414.76 1556.56 2413.88 1556.78 2413.84 1556.88 2413.8 1556.99 2413.77 1557.11 2413.61 1557.92 2413.32 1558.71 2413.23 1559.54 2413.07 1560.24 2413.01 1560.95 2412.93 1561.65 2412.78 1562.19 2413.05 1562.71 2413.08 1563.24 2413.19 1564.35 2413.19 1565.49 2412.94 1566.59 2412.8 1567.18 2412.83 1567.8 2412.97 1568.38 2413.27 1571 2414 1573.56 2414.95 1576.02 2415.12 1576.4 2415.32 1576.77 2415.46 1577.16 2415.78 1577.98 2416.27 1578.71 2416.67 1579.49 2417.09 1580.26 2417.63 1580.95 2418.09 1581.69 2418.75 1582.55 2419.43 1583.42 2420.24 1584.15 2420.36 1584.28 2420.51 1584.12 2420.6 1584.04 2421.27 1583.36 2421.94 1582.68 2422.62 1582.01 2422.86 1581.75 2423.14 1581.53 2423.35 1581.24 2423.34 1580.89 2423.16 1580.57 2423.07 1580.24 2422.56 1578.63 2421.98 1577.05 2421.49 1575.44 2421.63 1575.09 2421.85 1574.77 2422.01 1574.43 2422.84 1572.89 2423.47 1571.23 2423.91 1569.53 2423.93 1569.37 2424.1 1569.3 2424.22 1569.23 2425.92 1568.38 2427.63 1567.52 2429.33 1566.67 2429.35 1565.18 2429.33 1563.7 2429.34 1562.21 2427.55 1561.35 2425.77 1560.49 2423.99 1559.64 2423.96 1559.62 2423.91 1559.58 2423.89 1559.56 2423.64 1558.69 2423.4 1557.81 2423.05 1556.97 2422.63 1555.82 2422.04 1554.74 2421.43 1553.68 2420.48 1554.06 2419.6 1554.64 2418.64 1555.01M2383.03 1559.65C2382.73 1559.87 2382.36 1559.99 2382.03 1560.16 2381.17 1560.58 2380.3 1561 2379.44 1561.43 2378.85 1561.73 2378.23 1561.97 2377.66 1562.3 2377.6 1562.97 2377.64 1563.65 2377.63 1564.32 2377.65 1565.13 2377.59 1565.95 2377.67 1566.76 2379.4 1567.61 2381.12 1568.48 2382.85 1569.34 2383.06 1569.41 2383.1 1569.65 2383.15 1569.84 2383.44 1570.98 2383.86 1572.08 2384.34 1573.16 2384.68 1573.95 2385.16 1574.66 2385.52 1575.44 2384.98 1577.16 2384.38 1578.86 2383.83 1580.57 2383.76 1580.79 2383.65 1581 2383.66 1581.24 2383.83 1581.47 2384.06 1581.66 2384.26 1581.87 2384.97 1582.59 2385.69 1583.3 2386.4 1584.02 2386.53 1583.92 2386.66 1583.82 2386.77 1583.69 2387.74 1582.43 2388.49 1581.01 2389.2 1579.6 2389.5 1578.77 2389.98 1578.02 2390.21 1577.16 2390.47 1576.5 2390.68 1575.82 2390.92 1575.16 2391.23 1574.15 2391.45 1573.11 2391.72 1572.09 2391.97 1570.81 2392.17 1569.53 2392.34 1568.24 2392.46 1567.73 2392.38 1567.21 2392.5 1566.7 2392.52 1565.41 2392.5 1564.11 2392.51 1562.82 2392.49 1562.34 2392.54 1561.85 2392.42 1561.37 2392.35 1560.21 2392.17 1559.05 2391.98 1557.89 2391.91 1557.49 2391.8 1557.1 2391.79 1556.69 2391.2 1556.52 2390.63 1556.3 2390.04 1556.13 2389.45 1555.96 2388.91 1555.67 2388.32 1555.49 2387.81 1555.33 2387.34 1555.08 2386.85 1554.86 2386.32 1554.64 2385.79 1554.41 2385.29 1554.11 2384.23 1555.81 2383.58 1557.73 2383.03 1559.65M2403.14 1556.48C2403.01 1556.5 2402.88 1556.52 2402.76 1556.53 2402.11 1556.55 2401.5 1556.75 2400.88 1556.88 2400.41 1556.98 2400 1557.22 2399.58 1557.43 2399.1 1557.7 2398.61 1557.99 2398.26 1558.41 2398.01 1558.69 2397.66 1558.86 2397.43 1559.16 2396.83 1559.89 2396.33 1560.7 2395.95 1561.56 2395.57 1562.4 2395.57 1563.34 2395.42 1564.23 2395.34 1565.16 2395.58 1566.07 2395.82 1566.96 2395.97 1567.64 2396.34 1568.23 2396.67 1568.83 2397.07 1569.55 2397.69 1570.1 2398.28 1570.65 2398.89 1571.23 2399.65 1571.59 2400.39 1571.96 2401.36 1572.36 2402.41 1572.55 2403.46 1572.5 2404.74 1572.57 2406.04 1572.28 2407.16 1571.64 2408.15 1571.17 2408.95 1570.39 2409.71 1569.61 2410.07 1569.21 2410.37 1568.75 2410.56 1568.24 2411.12 1567.2 2411.39 1566.02 2411.5 1564.85 2411.53 1563.67 2411.29 1562.49 2410.87 1561.38 2410.55 1560.63 2410.08 1559.96 2409.6 1559.3 2408.34 1557.81 2406.54 1556.74 2404.58 1556.52 2404.1 1556.49 2403.62 1556.38 2403.14 1556.48M2395.56 1570.15C2395.29 1571.42 2395.14 1572.71 2394.78 1573.96 2394.02 1577.06 2392.92 1580.1 2391.32 1582.86 2391.74 1582.79 2392.12 1582.58 2392.54 1582.51 2392.81 1582.57 2393.04 1582.76 2393.3 1582.87 2394.91 1583.76 2396.64 1584.44 2398.42 1584.91 2398.51 1584.94 2398.62 1584.99 2398.67 1585.09 2399.22 1586.13 2399.71 1587.2 2400.26 1588.25 2400.62 1588.96 2400.93 1589.69 2401.35 1590.38 2402.82 1590.41 2404.28 1590.38 2405.75 1590.39 2406.64 1588.61 2407.52 1586.84 2408.41 1585.06 2408.45 1584.95 2408.58 1584.93 2408.68 1584.9 2409.97 1584.57 2411.24 1584.11 2412.45 1583.54 2413.12 1583.19 2413.79 1582.83 2414.46 1582.46 2414.32 1582.04 2414.02 1581.71 2413.79 1581.33 2413.53 1580.93 2413.36 1580.47 2413.1 1580.07 2412.34 1578.68 2411.74 1577.2 2411.21 1575.72 2410.92 1574.81 2410.57 1573.93 2410.37 1573 2410.28 1572.57 2410.15 1572.15 2410.06 1571.72 2409.73 1571.87 2409.49 1572.15 2409.19 1572.35 2408.32 1573.02 2407.31 1573.47 2406.27 1573.82 2404.78 1574.27 2403.19 1574.33 2401.66 1574.06 2400.68 1573.89 2399.75 1573.51 2398.87 1573.06 2397.56 1572.36 2396.45 1571.33 2395.56 1570.15Z" fill-rule="evenodd"/><path d="M2400.69 1538.14C2400.76 1537.98 2400.96 1538.02 2401.1 1538 2402.35 1538 2403.6 1538 2404.84 1538 2404.98 1538.02 2405.18 1537.98 2405.25 1538.14 2405.73 1538.99 2406.06 1539.9 2406.51 1540.76 2406.9 1541.63 2407.33 1542.48 2407.73 1543.35 2407.79 1543.49 2407.88 1543.63 2408.05 1543.66 2409.6 1544.08 2411.12 1544.65 2412.55 1545.41 2413.04 1545.64 2413.49 1545.95 2413.98 1546.16 2415.87 1545.56 2417.73 1544.86 2419.62 1544.26 2419.83 1544.16 2419.97 1544.38 2420.11 1544.5 2421.06 1545.51 2422.05 1546.48 2423 1547.49 2422.89 1547.78 2422.83 1548.11 2422.59 1548.31 2420.66 1549.92 2418.45 1551.16 2416.12 1552.08 2415.23 1552.49 2414.3 1552.78 2413.38 1553.1 2412.43 1553.49 2411.43 1553.72 2410.45 1554 2408.81 1554.45 2407.13 1554.76 2405.46 1555 2405.12 1554.98 2404.8 1554.87 2404.47 1554.83 2403.18 1554.61 2401.85 1554.72 2400.57 1555 2398.87 1554.88 2397.2 1554.49 2395.53 1554.16 2394.83 1554 2394.13 1553.8 2393.43 1553.64 2392.91 1553.53 2392.42 1553.27 2391.9 1553.14 2391.04 1552.92 2390.21 1552.61 2389.39 1552.25 2388.34 1551.9 2387.33 1551.42 2386.34 1550.9 2385.35 1550.45 2384.41 1549.88 2383.54 1549.21 2383.33 1548.71 2383.18 1548.17 2383.02 1547.65 2382.94 1547.48 2383.09 1547.35 2383.18 1547.25 2384.09 1546.32 2384.99 1545.4 2385.89 1544.46 2385.99 1544.38 2386.07 1544.26 2386.19 1544.24 2386.52 1544.28 2386.82 1544.43 2387.13 1544.52 2388.53 1544.99 2389.93 1545.48 2391.33 1545.96 2391.62 1546.04 2391.95 1546.28 2392.23 1546.05 2394.04 1544.95 2395.98 1544.11 2398.02 1543.61 2398.67 1542.24 2399.34 1540.89 2400 1539.53 2400.23 1539.07 2400.42 1538.59 2400.69 1538.14Z" fill="#41B349" fill-rule="evenodd"/><path d="M2418.62 1554.35C2419.56 1553.97 2420.4 1553.39 2421.33 1553 2421.92 1554.07 2422.49 1555.17 2422.9 1556.34 2423.24 1557.19 2423.47 1558.08 2423.71 1558.97 2423.73 1558.99 2423.78 1559.03 2423.81 1559.05 2425.54 1559.92 2427.27 1560.79 2429 1561.66 2428.99 1563.17 2429.01 1564.68 2428.99 1566.19 2427.34 1567.06 2425.69 1567.93 2424.03 1568.79 2423.91 1568.87 2423.75 1568.93 2423.73 1569.1 2423.3 1570.83 2422.7 1572.51 2421.89 1574.08 2421.73 1574.42 2421.52 1574.74 2421.38 1575.1 2421.86 1576.73 2422.42 1578.34 2422.91 1579.97 2423 1580.31 2423.18 1580.63 2423.18 1580.99 2422.99 1581.29 2422.72 1581.52 2422.48 1581.78 2421.82 1582.46 2421.17 1583.15 2420.52 1583.84 2420.43 1583.92 2420.29 1584.08 2420.17 1583.95 2419.38 1583.21 2418.73 1582.33 2418.09 1581.46 2417.64 1580.7 2417.11 1580 2416.71 1579.21 2416.33 1578.42 2415.84 1577.68 2415.54 1576.85 2415.4 1576.45 2415.21 1576.08 2415.05 1575.69 2414.12 1573.19 2413.41 1570.6 2413.12 1567.93 2412.98 1567.34 2412.95 1566.71 2413.09 1566.11 2413.33 1565 2413.33 1563.84 2413.22 1562.71 2413.2 1562.17 2412.93 1561.64 2413.08 1561.09 2413.16 1560.38 2413.22 1559.66 2413.37 1558.95 2413.46 1558.11 2413.74 1557.31 2413.9 1556.48 2413.92 1556.36 2413.97 1556.25 2414.01 1556.14 2414.86 1555.92 2415.65 1555.52 2416.49 1555.25 2417.21 1554.98 2417.93 1554.69 2418.62 1554.35Z" fill="#708FC5" fill-rule="evenodd"/><path d="M2382.44 1559.55C2383 1557.63 2383.65 1555.7 2384.72 1554 2385.22 1554.29 2385.76 1554.53 2386.3 1554.75 2386.79 1554.97 2387.26 1555.22 2387.78 1555.38 2388.37 1555.56 2388.92 1555.85 2389.51 1556.02 2390.1 1556.2 2390.68 1556.42 2391.27 1556.58 2391.29 1556.99 2391.4 1557.39 2391.46 1557.79 2391.66 1558.95 2391.83 1560.11 2391.91 1561.29 2392.03 1561.76 2391.98 1562.25 2392 1562.73 2391.99 1564.03 2392.01 1565.33 2391.99 1566.63 2391.87 1567.14 2391.95 1567.66 2391.83 1568.17 2391.66 1569.46 2391.45 1570.75 2391.2 1572.03 2390.93 1573.06 2390.71 1574.1 2390.4 1575.11 2390.16 1575.78 2389.95 1576.46 2389.69 1577.12 2389.45 1577.98 2388.97 1578.73 2388.67 1579.56 2387.94 1580.99 2387.19 1582.4 2386.21 1583.67 2386.11 1583.8 2385.97 1583.9 2385.84 1584 2385.13 1583.28 2384.41 1582.56 2383.68 1581.85 2383.48 1581.64 2383.25 1581.45 2383.08 1581.21 2383.08 1580.97 2383.18 1580.76 2383.25 1580.54 2383.81 1578.82 2384.42 1577.12 2384.96 1575.39 2384.59 1574.62 2384.11 1573.9 2383.76 1573.11 2383.28 1572.03 2382.86 1570.92 2382.57 1569.77 2382.52 1569.59 2382.48 1569.35 2382.27 1569.28 2380.53 1568.41 2378.79 1567.54 2377.05 1566.68 2376.96 1565.87 2377.02 1565.05 2377 1564.24 2377.02 1563.56 2376.98 1562.89 2377.03 1562.21 2377.61 1561.88 2378.23 1561.64 2378.82 1561.34 2379.69 1560.91 2380.57 1560.49 2381.44 1560.07 2381.78 1559.9 2382.14 1559.78 2382.44 1559.55Z" fill="#DA4A37" fill-rule="evenodd"/><path d="M2395.21 1570C2396.1 1571.17 2397.2 1572.18 2398.51 1572.87 2399.38 1573.32 2400.3 1573.69 2401.28 1573.86 2402.8 1574.13 2404.38 1574.07 2405.86 1573.62 2406.89 1573.28 2407.9 1572.84 2408.76 1572.18 2409.06 1571.98 2409.3 1571.7 2409.63 1571.55 2409.72 1571.98 2409.84 1572.4 2409.94 1572.82 2410.14 1573.74 2410.49 1574.61 2410.77 1575.5 2411.3 1576.97 2411.89 1578.42 2412.65 1579.8 2412.91 1580.2 2413.08 1580.65 2413.34 1581.05 2413.56 1581.42 2413.86 1581.74 2414 1582.16 2413.34 1582.53 2412.67 1582.89 2412 1583.23 2410.8 1583.79 2409.54 1584.25 2408.25 1584.57 2408.16 1584.61 2408.03 1584.62 2407.99 1584.73 2407.11 1586.49 2406.23 1588.24 2405.35 1589.99 2403.89 1589.99 2402.43 1590.01 2400.97 1589.98 2400.56 1589.31 2400.25 1588.58 2399.88 1587.88 2399.34 1586.84 2398.85 1585.79 2398.31 1584.76 2398.26 1584.66 2398.15 1584.61 2398.05 1584.58 2396.29 1584.12 2394.57 1583.45 2392.97 1582.57 2392.72 1582.46 2392.49 1582.27 2392.21 1582.21 2391.8 1582.28 2391.42 1582.48 2391 1582.56 2392.59 1579.83 2393.69 1576.83 2394.44 1573.77 2394.8 1572.53 2394.95 1571.25 2395.21 1570Z" fill="#F6CA38" fill-rule="evenodd"/></g></svg>