<svg width="104" height="106" xmlns="http://www.w3.org/2000/svg" xmlns:xlink="http://www.w3.org/1999/xlink" xml:space="preserve" overflow="hidden"><defs><linearGradient x1="2391.14" y1="1324.66" x2="2442.86" y2="1445.34" gradientUnits="userSpaceOnUse" spreadMethod="reflect" id="fill0"><stop offset="0" stop-color="#E4E4E4"/><stop offset="0.5" stop-color="#F0F0F0"/><stop offset="1" stop-color="#FFFFFF"/></linearGradient></defs><g transform="translate(-2365 -1334)"><path d="M2393.5 1337C2387.87 1337 2383.4 1337.11 2379.61 1337.66 2375.82 1338.21 2372.52 1339.28 2370.06 1341.41 2367.6 1343.53 2366.35 1346.4 2365.72 1349.69 2365.09 1352.98 2364.98 1356.86 2365 1361.75L2365 1388.5 2365 1415.27C2364.97 1420.15 2365.09 1424.02 2365.72 1427.31 2366.35 1430.6 2367.6 1433.47 2370.06 1435.59 2372.52 1437.72 2375.82 1438.79 2379.61 1439.34 2383.4 1439.89 2387.87 1440 2393.5 1440L2439.51 1440C2445.14 1440 2449.6 1439.89 2453.38 1439.34 2457.17 1438.79 2460.47 1437.71 2462.92 1435.59 2465.37 1433.46 2466.61 1430.6 2467.24 1427.31 2467.88 1424.03 2468 1420.16 2468 1415.27L2468 1388.5 2468 1361.73C2468 1356.84 2467.88 1352.97 2467.24 1349.69 2466.61 1346.4 2465.37 1343.54 2462.92 1341.41 2460.47 1339.29 2457.17 1338.21 2453.38 1337.66 2449.6 1337.11 2445.14 1337 2439.51 1337Z" fill="#000000" fill-rule="evenodd" fill-opacity="0.101961"/><path d="M2393.3 1335C2371.05 1335 2366.89 1337.01 2367 1356.66L2367 1385 2367 1413.34C2366.89 1432.99 2371.05 1435 2393.3 1435L2440.7 1435C2462.95 1435 2467 1432.99 2467 1413.34L2467 1385 2467 1356.66C2467 1337.01 2462.95 1335 2440.7 1335Z" fill="url(#fill0)" fill-rule="evenodd"/><path d="M2393.8 1335.5C2371.55 1335.5 2367.39 1337.51 2367.5 1357.16L2367.5 1385.5 2367.5 1413.84C2367.39 1433.49 2371.55 1435.5 2393.8 1435.5L2441.2 1435.5C2463.45 1435.5 2467.5 1433.49 2467.5 1413.84L2467.5 1385.5 2467.5 1357.16C2467.5 1337.51 2463.45 1335.5 2441.2 1335.5Z" stroke="#000000" stroke-width="3.4375" stroke-miterlimit="8" stroke-opacity="0.4" fill="none" fill-rule="evenodd"/><path d="M2411.57 1348.01C2414.48 1348.02 2417.4 1347.97 2420.32 1348.03 2421.01 1349.36 2421.59 1350.75 2422.27 1352.09 2422.88 1353.29 2423.39 1354.55 2424.03 1355.74 2425.85 1356.27 2427.63 1356.95 2429.34 1357.8 2429.82 1358.04 2430.3 1358.33 2430.8 1358.54 2431.03 1358.55 2431.24 1358.43 2431.46 1358.37 2433.45 1357.69 2435.44 1357.02 2437.43 1356.35 2437.95 1356.18 2438.45 1355.96 2438.99 1355.86 2441.07 1357.95 2443.1 1360.09 2445.22 1362.13 2445.17 1362.27 2445.13 1362.41 2445.08 1362.55 2445.02 1362.73 2444.96 1362.91 2444.9 1363.08 2444.87 1363.22 2444.82 1363.35 2444.77 1363.48 2444.74 1363.62 2444.69 1363.75 2444.62 1363.88 2444.61 1363.94 2444.59 1364.07 2444.58 1364.14 2444.5 1364.31 2444.44 1364.49 2444.36 1364.67 2444.35 1364.73 2444.33 1364.86 2444.32 1364.93 2443.61 1366.58 2443.14 1368.33 2442.6 1370.04 2442.42 1370.54 2442.79 1370.97 2442.99 1371.39 2443.99 1373.23 2444.69 1375.22 2445.31 1377.23 2447.87 1378.49 2450.45 1379.7 2452.99 1380.98 2452.99 1383.93 2453.02 1386.89 2452.98 1389.85 2450.58 1391.04 2448.2 1392.27 2445.81 1393.47 2445.56 1393.59 2445.33 1393.79 2445.28 1394.08 2444.67 1396.27 2443.77 1398.37 2442.72 1400.37 2442.57 1400.58 2442.64 1400.82 2442.72 1401.03 2443.6 1403.61 2444.39 1406.23 2445.31 1408.79 2445.12 1409.08 2444.86 1409.32 2444.61 1409.56 2443.09 1411.11 2441.57 1412.66 2440.04 1414.2 2439.71 1414.54 2439.35 1414.87 2439.06 1415.25 2438.89 1415.11 2438.69 1415.03 2438.49 1414.96 2436.09 1414.13 2433.68 1413.33 2431.27 1412.56L2431.23 1412.54 2431.2 1412.54C2430.63 1412.4 2430.2 1412.87 2429.73 1413.1 2427.98 1414.04 2426.11 1414.73 2424.22 1415.32 2422.94 1417.87 2421.73 1420.46 2420.41 1422.99 2417.5 1423 2414.59 1423 2411.67 1422.99 2410.38 1420.45 2409.14 1417.89 2407.89 1415.33 2406.3 1414.77 2404.69 1414.27 2403.17 1413.52 2402.52 1413.24 2401.93 1412.86 2401.29 1412.56 2401.06 1412.44 2400.79 1412.53 2400.56 1412.61 2399.66 1412.93 2398.75 1413.24 2397.82 1413.49 2396.21 1414.07 2394.57 1414.56 2392.97 1415.17 2392.37 1414.67 2391.89 1414.04 2391.27 1413.57 2389.74 1412.03 2388.2 1410.49 2386.69 1408.91 2387.49 1406.44 2388.31 1403.98 2389.11 1401.52 2389.26 1401.11 2389.45 1400.62 2389.2 1400.21 2388.37 1398.77 2387.74 1397.21 2387.16 1395.65 2386.93 1395.03 2386.82 1394.37 2386.56 1393.77 2384.04 1392.49 2381.52 1391.22 2379 1389.93 2379 1386.97 2379 1384.02 2379 1381.06 2380.47 1380.29 2381.98 1379.61 2383.46 1378.86 2384.49 1378.37 2385.49 1377.8 2386.55 1377.35 2387.08 1375.8 2387.54 1374.23 2388.25 1372.75 2388.57 1371.93 2389.07 1371.2 2389.45 1370.41 2389.1 1369.37 2388.81 1368.31 2388.35 1367.31 2388.33 1367.17 2388.28 1367.04 2388.21 1366.91 2388.2 1366.85 2388.18 1366.72 2388.17 1366.65 2388.09 1366.48 2388.02 1366.3 2387.96 1366.12 2387.93 1365.98 2387.89 1365.85 2387.84 1365.72 2387.81 1365.58 2387.76 1365.45 2387.69 1365.33 2387.68 1365.26 2387.66 1365.13 2387.65 1365.07 2387.58 1364.94 2387.53 1364.81 2387.5 1364.67 2387.45 1364.54 2387.4 1364.41 2387.37 1364.27 2387.31 1364.14 2387.27 1364.01 2387.24 1363.88 2387.18 1363.7 2387.12 1363.52 2387.05 1363.34 2387.02 1363.21 2386.98 1363.07 2386.92 1362.95 2386.86 1362.66 2386.77 1362.38 2386.77 1362.09 2386.94 1361.83 2387.18 1361.64 2387.4 1361.42 2389.18 1359.61 2390.96 1357.8 2392.75 1355.99 2392.91 1355.77 2393.18 1355.93 2393.39 1355.97 2395.8 1356.8 2398.22 1357.61 2400.63 1358.43 2400.96 1358.55 2401.31 1358.47 2401.6 1358.28 2403.53 1357.13 2405.66 1356.36 2407.79 1355.68 2409.04 1353.12 2410.3 1350.56 2411.57 1348.01M2412.96 1350.27C2411.74 1352.72 2410.56 1355.19 2409.32 1357.63 2408.8 1357.82 2408.24 1357.91 2407.72 1358.11 2405.47 1358.78 2403.34 1359.81 2401.34 1361.04 2398.73 1360.18 2396.13 1359.28 2393.52 1358.41 2392.1 1359.86 2390.67 1361.3 2389.25 1362.76 2389.52 1363.53 2389.74 1364.32 2390.03 1365.08L2390.12 1365.13C2390.13 1365.29 2390.17 1365.45 2390.23 1365.6 2390.27 1365.73 2390.31 1365.86 2390.36 1365.99 2390.4 1366.13 2390.44 1366.26 2390.49 1366.39 2390.53 1366.52 2390.57 1366.65 2390.62 1366.79 2390.66 1366.92 2390.7 1367.05 2390.76 1367.18 2390.79 1367.32 2390.84 1367.45 2390.89 1367.58 2390.92 1367.71 2390.96 1367.85 2391.02 1367.98 2391.04 1368.12 2391.09 1368.25 2391.16 1368.37 2391.17 1368.44 2391.2 1368.57 2391.21 1368.63 2391.46 1369.28 2391.57 1369.97 2391.81 1370.62 2391.68 1370.85 2391.58 1371.09 2391.48 1371.34 2390.12 1373.7 2389.16 1376.28 2388.49 1378.92 2386.07 1380.1 2383.66 1381.3 2381.24 1382.48 2381.22 1384.5 2381.24 1386.52 2381.23 1388.54 2383.59 1389.74 2385.96 1390.93 2388.32 1392.14 2388.54 1392.23 2388.56 1392.52 2388.63 1392.73 2389.29 1395.34 2390.36 1397.84 2391.73 1400.15 2391.93 1400.42 2391.71 1400.73 2391.64 1401.01 2390.85 1403.44 2390.03 1405.86 2389.26 1408.3 2390.26 1409.28 2391.23 1410.3 2392.22 1411.29 2392.5 1411.56 2392.74 1411.88 2393.08 1412.09 2393.21 1412.21 2393.34 1412.34 2393.46 1412.48 2393.64 1412.46 2393.83 1412.48 2393.99 1412.37 2394.12 1412.34 2394.25 1412.29 2394.38 1412.24 2394.52 1412.21 2394.65 1412.16 2394.77 1412.09 2394.83 1412.08 2394.96 1412.06 2395.03 1412.05 2395.15 1411.98 2395.28 1411.93 2395.42 1411.9 2395.54 1411.84 2395.67 1411.8 2395.81 1411.77 2395.98 1411.7 2396.16 1411.64 2396.33 1411.58 2396.47 1411.54 2396.6 1411.5 2396.72 1411.45 2396.86 1411.41 2396.99 1411.37 2397.12 1411.32 2397.25 1411.28 2397.38 1411.24 2397.51 1411.18 2397.64 1411.15 2397.77 1411.1 2397.9 1411.03 2397.96 1411.02 2398.09 1411 2398.15 1410.99 2398.28 1410.92 2398.41 1410.87 2398.54 1410.84 2398.67 1410.79 2398.8 1410.74 2398.94 1410.71 2399.11 1410.64 2399.28 1410.58 2399.46 1410.53 2399.49 1410.52 2399.56 1410.49 2399.6 1410.48 2400.19 1410.43 2400.72 1410.14 2401.29 1409.98 2403.68 1411.38 2406.23 1412.51 2408.9 1413.23 2409.11 1413.3 2409.4 1413.32 2409.51 1413.56 2410.71 1415.96 2411.86 1418.39 2413.09 1420.77 2415.07 1420.76 2417.05 1420.76 2419.03 1420.77 2420.22 1418.31 2421.45 1415.87 2422.64 1413.41 2423.25 1413.19 2423.89 1413.06 2424.5 1412.84 2426.72 1412.17 2428.79 1411.11 2430.78 1409.92 2430.82 1409.96 2430.91 1410.04 2430.95 1410.08 2431.02 1410.09 2431.17 1410.1 2431.25 1410.1 2431.41 1410.19 2431.59 1410.25 2431.77 1410.31 2431.9 1410.35 2432.03 1410.39 2432.16 1410.44 2432.3 1410.47 2432.43 1410.52 2432.55 1410.59 2432.62 1410.6 2432.74 1410.63 2432.81 1410.64 2432.93 1410.71 2433.06 1410.76 2433.2 1410.79 2433.33 1410.84 2433.46 1410.88 2433.59 1410.92 2433.72 1410.97 2433.85 1411.02 2433.98 1411.05 2434.11 1411.1 2434.24 1411.15 2434.37 1411.18 2434.5 1411.24 2434.63 1411.28 2434.76 1411.31 2434.94 1411.37 2435.12 1411.44 2435.29 1411.52 2435.35 1411.53 2435.48 1411.55 2435.54 1411.56 2435.67 1411.63 2435.8 1411.68 2435.94 1411.71 2436.06 1411.76 2436.19 1411.81 2436.33 1411.84 2436.45 1411.89 2436.58 1411.94 2436.72 1411.98 2436.84 1412.03 2436.97 1412.07 2437.11 1412.11 2437.23 1412.16 2437.36 1412.2 2437.5 1412.24 2437.62 1412.29 2437.76 1412.34 2437.89 1412.37 2438.06 1412.45 2438.27 1412.46 2438.4 1412.61 2438.48 1412.53 2438.56 1412.46 2438.63 1412.38 2438.84 1412.29 2438.99 1412.11 2439.14 1411.95 2440.34 1410.72 2441.56 1409.51 2442.75 1408.27 2441.87 1405.66 2441.04 1403.03 2440.16 1400.42 2440.36 1399.97 2440.62 1399.55 2440.84 1399.11 2442.01 1396.92 2442.89 1394.56 2443.49 1392.14 2445.9 1390.89 2448.34 1389.68 2450.76 1388.43 2450.74 1386.41 2450.78 1384.38 2450.74 1382.35 2449.29 1381.71 2447.9 1380.97 2446.47 1380.3 2445.44 1379.8 2444.4 1379.32 2443.4 1378.78 2442.97 1377.14 2442.46 1375.51 2441.76 1373.97 2441.3 1372.85 2440.68 1371.82 2440.13 1370.76L2440.03 1370.79C2440.05 1370.6 2440 1370.38 2440.15 1370.22 2440.16 1370.15 2440.18 1370.02 2440.19 1369.96 2440.27 1369.78 2440.33 1369.61 2440.4 1369.43 2440.42 1369.28 2440.47 1369.15 2440.54 1369.03 2440.55 1368.96 2440.57 1368.83 2440.58 1368.77 2440.65 1368.64 2440.7 1368.51 2440.73 1368.37 2440.79 1368.19 2440.85 1368.02 2440.92 1367.84 2440.95 1367.7 2440.99 1367.57 2441.04 1367.44 2441.08 1367.31 2441.12 1367.17 2441.18 1367.04 2441.21 1366.91 2441.25 1366.78 2441.31 1366.65 2441.34 1366.51 2441.38 1366.38 2441.44 1366.25 2441.47 1366.12 2441.51 1365.98 2441.57 1365.85 2441.6 1365.72 2441.64 1365.59 2441.7 1365.46 2441.72 1365.32 2441.77 1365.19 2441.84 1365.06 2441.86 1365 2441.88 1364.87 2441.89 1364.8 2441.96 1364.63 2442.03 1364.45 2442.09 1364.27 2442.13 1364.09 2442.19 1363.91 2442.26 1363.74 2442.42 1363.42 2442.54 1363.08 2442.65 1362.75 2441.22 1361.3 2439.8 1359.85 2438.37 1358.4 2435.89 1359.26 2433.41 1360.07 2430.94 1360.93 2430.79 1360.97 2430.61 1361.07 2430.46 1360.96 2428.93 1360.09 2427.35 1359.28 2425.69 1358.67 2424.64 1358.23 2423.52 1357.98 2422.44 1357.61 2421.25 1355.18 2420.1 1352.72 2418.93 1350.28 2416.94 1350.26 2414.95 1350.27 2412.96 1350.27Z" fill-rule="evenodd"/><path d="M2412.7 1372.39C2413.75 1372.21 2414.8 1371.99 2415.87 1372 2417.07 1371.97 2418.25 1372.19 2419.42 1372.43L2419.58 1372.47C2419.85 1372.52 2420.12 1372.6 2420.36 1372.74 2420.57 1372.81 2420.79 1372.88 2421.01 1372.94 2422.33 1373.56 2423.61 1374.28 2424.68 1375.27 2425.25 1375.88 2425.91 1376.41 2426.37 1377.11 2427.22 1378.16 2427.79 1379.39 2428.31 1380.63 2428.39 1380.9 2428.46 1381.18 2428.59 1381.44 2428.71 1382.4 2428.98 1383.35 2428.99 1384.34 2429 1385.17 2429.03 1386.01 2428.89 1386.83 2428.82 1387.4 2428.64 1387.96 2428.59 1388.53 2428.51 1388.7 2428.48 1388.89 2428.45 1389.07 2427.99 1389.97 2427.63 1390.93 2427.08 1391.78 2426.46 1392.82 2425.66 1393.74 2424.79 1394.59 2422.82 1396.43 2420.24 1397.6 2417.56 1397.92 2415.55 1398.13 2413.47 1397.94 2411.56 1397.22 2409.09 1396.31 2406.92 1394.65 2405.39 1392.51 2405.06 1392.07 2404.78 1391.6 2404.46 1391.15 2404.45 1391.09 2404.43 1390.96 2404.42 1390.9 2404.21 1390.51 2404.02 1390.12 2403.82 1389.73 2403.7 1389.33 2403.58 1388.93 2403.42 1388.55 2403.4 1388.43 2403.38 1388.31 2403.37 1388.19 2403.32 1388.02 2403.27 1387.84 2403.21 1387.67 2403.11 1387.31 2403.19 1386.93 2403.03 1386.59 2402.98 1385.84 2403.02 1385.09 2403.01 1384.34 2403.01 1383.96 2402.96 1383.57 2403.1 1383.21 2403.12 1382.64 2403.37 1382.13 2403.49 1381.58 2403.93 1379.87 2404.79 1378.3 2405.82 1376.88 2407.1 1375.41 2408.64 1374.13 2410.41 1373.29 2411.14 1372.92 2411.94 1372.72 2412.7 1372.39M2415.42 1374.32C2415.07 1374.34 2414.73 1374.33 2414.38 1374.34 2414.17 1374.56 2413.82 1374.37 2413.6 1374.57 2413.42 1374.6 2413.22 1374.58 2413.08 1374.7 2412.9 1374.72 2412.72 1374.71 2412.57 1374.81 2411.37 1375.08 2410.3 1375.78 2409.32 1376.51 2409.1 1376.66 2409.02 1376.93 2408.8 1377.09 2408.09 1377.55 2407.58 1378.26 2407.09 1378.94 2406.28 1380.19 2405.49 1381.57 2405.46 1383.1 2405.18 1383.43 2405.51 1383.94 2405.23 1384.27 2405.18 1384.94 2405.14 1385.63 2405.31 1386.28 2405.36 1386.52 2405.3 1386.79 2405.45 1387 2405.48 1387.18 2405.45 1387.38 2405.59 1387.52 2405.6 1387.65 2405.61 1387.78 2405.62 1387.9 2405.8 1388.15 2405.8 1388.47 2405.9 1388.76 2407.19 1392.29 2410.46 1395.04 2414.19 1395.61 2415.13 1395.81 2416.1 1395.71 2417.05 1395.72 2419.03 1395.56 2420.93 1394.77 2422.52 1393.59 2423.09 1393.19 2423.54 1392.64 2424.06 1392.17 2424.44 1391.84 2424.72 1391.42 2425.01 1391.01 2425.45 1390.42 2425.59 1389.68 2425.99 1389.08 2426 1389.01 2426.02 1388.88 2426.03 1388.82 2426.1 1388.7 2426.15 1388.57 2426.18 1388.43 2426.23 1388.3 2426.27 1388.17 2426.31 1388.04 2426.42 1387.84 2426.36 1387.57 2426.51 1387.39 2426.52 1387.26 2426.53 1387.13 2426.54 1387 2426.81 1386.71 2426.5 1386.24 2426.78 1385.96 2426.8 1385.35 2426.8 1384.75 2426.78 1384.14 2426.49 1383.82 2426.82 1383.31 2426.55 1382.97 2426.52 1382.79 2426.54 1382.6 2426.42 1382.45 2426.4 1382.27 2426.4 1382.09 2426.31 1381.93 2426.28 1381.79 2426.23 1381.66 2426.16 1381.54 2426.15 1381.48 2426.13 1381.35 2426.12 1381.29 2426.04 1381.16 2426 1381.03 2425.98 1380.89 2425.87 1380.68 2425.76 1380.47 2425.65 1380.26 2425.59 1380.12 2425.52 1379.98 2425.46 1379.84 2425.14 1379.35 2424.86 1378.81 2424.44 1378.4 2424.42 1378.61 2424.4 1378.82 2424.38 1379.03 2424.37 1378.76 2424.39 1378.48 2424.41 1378.21 2423.89 1377.64 2423.35 1377.09 2422.77 1376.58 2422.59 1376.6 2422.41 1376.61 2422.23 1376.63 2422.38 1376.6 2422.53 1376.57 2422.69 1376.54 2420.98 1375.1 2418.76 1374.3 2416.53 1374.22 2416.16 1374.24 2415.73 1374.08 2415.42 1374.32Z" fill-rule="evenodd"/><path d="M2412.98 1350C2414.99 1350 2417 1349.99 2419.01 1350.01 2420.2 1352.51 2421.36 1355.03 2422.57 1357.52 2423.65 1357.9 2424.79 1358.16 2425.85 1358.61 2427.53 1359.24 2429.12 1360.06 2430.68 1360.96 2430.83 1361.07 2431 1360.97 2431.16 1360.93 2433.65 1360.04 2436.17 1359.21 2438.67 1358.34 2440.12 1359.82 2441.55 1361.31 2443 1362.79 2442.88 1363.14 2442.77 1363.48 2442.6 1363.81 2441.56 1364.57 2440.57 1365.43 2439.45 1366.08 2438.95 1366.5 2438.33 1366.69 2437.81 1367.07 2437.2 1367.43 2436.55 1367.7 2435.94 1368.06 2435.88 1368.07 2435.75 1368.08 2435.69 1368.09 2435.38 1368.27 2435.06 1368.42 2434.76 1368.61 2434.69 1368.61 2434.56 1368.62 2434.5 1368.63 2434.36 1368.71 2434.23 1368.8 2434.1 1368.88 2434.04 1368.89 2433.91 1368.89 2433.84 1368.9 2433.71 1368.98 2433.57 1369.07 2433.44 1369.16 2433.38 1369.16 2433.25 1369.16 2433.18 1369.17 2433.05 1369.25 2432.92 1369.34 2432.78 1369.43 2432.72 1369.43 2432.59 1369.44 2432.53 1369.44 2432.39 1369.52 2432.26 1369.6 2432.13 1369.67 2431.99 1369.72 2431.85 1369.76 2431.72 1369.81 2431.66 1369.82 2431.54 1369.85 2431.48 1369.86 2431.3 1369.94 2431.11 1370.01 2430.93 1370.09 2430.87 1370.1 2430.75 1370.13 2430.69 1370.14 2430.56 1370.19 2430.43 1370.24 2430.29 1370.29 2430.16 1370.34 2430.03 1370.38 2429.9 1370.43 2429.76 1370.47 2429.63 1370.51 2429.49 1370.55 2429.36 1370.62 2429.23 1370.69 2429.1 1370.76 2428.91 1370.79 2428.73 1370.82 2428.55 1370.88 2428.5 1370.9 2428.38 1370.94 2428.32 1370.96 2428.09 1371.03 2427.86 1371.09 2427.63 1371.16 2427.58 1371.18 2427.46 1371.21 2427.4 1371.23 2427.23 1371.29 2427.05 1371.33 2426.87 1371.37 2426.64 1371.44 2426.41 1371.5 2426.18 1371.57 2426.13 1371.59 2426.01 1371.62 2425.95 1371.64 2425.78 1371.69 2425.6 1371.74 2425.43 1371.79 2425.15 1371.85 2424.87 1371.89 2424.6 1371.97 2424.48 1372 2424.36 1372.02 2424.24 1372.04 2423.97 1372.13 2423.69 1372.16 2423.41 1372.24 2423.19 1372.27 2422.96 1372.29 2422.75 1372.39 2422.59 1372.41 2422.43 1372.42 2422.27 1372.44 2422.02 1372.57 2421.74 1372.55 2421.48 1372.58 2421.23 1372.71 2420.95 1372.68 2420.69 1372.72 2420.4 1372.86 2420.07 1372.81 2419.77 1372.85 2419.69 1372.88 2419.53 1372.96 2419.46 1373 2418.27 1372.75 2417.07 1372.52 2415.86 1372.56 2414.77 1372.55 2413.7 1372.77 2412.64 1372.96 2409.14 1372.55 2405.67 1371.83 2402.27 1370.86 2401.06 1370.4 2399.79 1370.13 2398.6 1369.61 2397.3 1369.12 2396 1368.62 2394.74 1368.02 2393.57 1367.39 2392.35 1366.87 2391.24 1366.15 2390.79 1365.84 2390.35 1365.52 2389.89 1365.23L2389.8 1365.18C2389.5 1364.4 2389.28 1363.59 2389 1362.8 2390.44 1361.31 2391.88 1359.83 2393.32 1358.34 2395.96 1359.24 2398.59 1360.16 2401.22 1361.04 2403.25 1359.78 2405.4 1358.72 2407.68 1358.03 2408.2 1357.83 2408.77 1357.74 2409.3 1357.54 2410.55 1355.05 2411.74 1352.51 2412.98 1350Z" fill="#41B349" fill-rule="evenodd"/><path d="M2439.91 1371.21C2440.06 1371.15 2440.21 1371.09 2440.37 1371.03L2440.46 1371C2441.01 1372.05 2441.63 1373.06 2442.08 1374.16 2442.78 1375.68 2443.28 1377.28 2443.71 1378.9 2444.7 1379.43 2445.73 1379.9 2446.75 1380.4 2448.16 1381.06 2449.55 1381.79 2450.98 1382.42 2451.02 1384.42 2450.98 1386.41 2451 1388.41 2448.6 1389.64 2446.19 1390.83 2443.8 1392.06 2443.2 1394.45 2442.33 1396.77 2441.17 1398.93 2440.95 1399.37 2440.7 1399.78 2440.49 1400.22 2441.37 1402.79 2442.2 1405.38 2443.06 1407.95 2441.89 1409.17 2440.67 1410.36 2439.49 1411.58 2439.33 1411.73 2439.19 1411.91 2438.98 1412 2437.87 1411.04 2436.98 1409.87 2436.08 1408.72 2434.87 1406.94 2433.7 1405.13 2432.78 1403.18 2430.93 1399.22 2429.66 1394.98 2429.16 1390.63 2428.99 1390.13 2429.02 1389.59 2429 1389.07 2429.05 1388.49 2429.23 1387.94 2429.3 1387.36 2429.44 1386.54 2429.41 1385.7 2429.4 1384.86 2429.39 1383.88 2429.13 1382.92 2429.01 1381.96 2429.32 1381.63 2429 1381.1 2429.26 1380.74 2429.3 1380.39 2429.21 1380.02 2429.38 1379.7 2429.4 1379.54 2429.41 1379.38 2429.43 1379.21 2429.58 1378.92 2429.5 1378.57 2429.63 1378.27 2429.66 1378.05 2429.67 1377.82 2429.77 1377.62 2429.78 1377.5 2429.8 1377.38 2429.82 1377.26 2429.89 1377.03 2429.95 1376.8 2430.03 1376.58 2430.04 1376.45 2430.06 1376.34 2430.08 1376.22 2430.19 1376.01 2430.18 1375.77 2430.19 1375.54 2430.3 1375.22 2430.59 1375.06 2430.9 1374.99 2431.03 1374.96 2431.16 1374.92 2431.29 1374.88 2431.42 1374.83 2431.55 1374.78 2431.68 1374.73 2431.74 1374.72 2431.86 1374.7 2431.93 1374.69 2432.05 1374.61 2432.18 1374.53 2432.31 1374.45 2432.37 1374.44 2432.5 1374.43 2432.56 1374.42 2432.69 1374.37 2432.82 1374.32 2432.95 1374.27 2433.13 1374.21 2433.31 1374.15 2433.48 1374.08 2433.54 1374.06 2433.66 1374.03 2433.72 1374.02 2433.85 1373.97 2433.99 1373.93 2434.12 1373.89 2434.25 1373.82 2434.38 1373.74 2434.51 1373.67 2434.57 1373.67 2434.7 1373.66 2434.77 1373.65 2434.89 1373.57 2435.02 1373.49 2435.15 1373.41 2435.22 1373.4 2435.35 1373.4 2435.41 1373.39 2435.54 1373.31 2435.67 1373.23 2435.8 1373.15 2435.86 1373.14 2435.99 1373.13 2436.05 1373.13 2436.27 1373 2436.49 1372.88 2436.71 1372.76 2436.77 1372.75 2436.89 1372.74 2436.96 1372.73 2437.25 1372.56 2437.55 1372.42 2437.85 1372.26 2438.07 1372.15 2438.3 1372.04 2438.52 1371.93 2438.69 1371.84 2438.86 1371.76 2439.03 1371.67 2439.33 1371.52 2439.63 1371.38 2439.91 1371.21Z" fill="#708FC5" fill-rule="evenodd"/><path d="M2388.26 1378.62C2388.93 1375.97 2389.9 1373.37 2391.25 1371 2394.05 1372.48 2397.02 1373.57 2400.03 1374.54 2400.12 1375.72 2400.46 1376.87 2400.56 1378.05 2400.64 1378.95 2400.84 1379.82 2400.83 1380.72 2400.86 1381.08 2400.97 1381.42 2400.96 1381.79 2401.02 1384.02 2401 1386.25 2400.98 1388.48 2400.69 1389.03 2401.04 1389.7 2400.76 1390.24 2400.75 1390.68 2400.7 1391.11 2400.6 1391.53 2399.88 1397.2 2398.26 1402.77 2395.62 1407.82 2394.77 1409.25 2394 1410.77 2392.85 1412 2392.52 1411.79 2392.27 1411.46 2391.99 1411.19 2391 1410.19 2390.03 1409.17 2389.03 1408.19 2389.8 1405.73 2390.62 1403.29 2391.41 1400.85 2391.48 1400.57 2391.71 1400.26 2391.5 1399.99 2390.13 1397.66 2389.06 1395.15 2388.4 1392.52 2388.33 1392.31 2388.32 1392.02 2388.09 1391.92 2385.73 1390.71 2383.36 1389.52 2381 1388.3 2381.01 1386.27 2380.99 1384.24 2381.01 1382.21 2383.43 1381.02 2385.84 1379.81 2388.26 1378.62Z" fill="#DA4A37" fill-rule="evenodd"/><path d="M2431 1412 2431.52 1412.08 2432 1413C2431.75 1412.69 2431.25 1412.23 2431 1412Z" fill="#DA4A37" fill-rule="evenodd"/><path d="M2404.85 1393C2406.42 1395.12 2408.66 1396.78 2411.2 1397.68 2413.16 1398.4 2415.3 1398.59 2417.38 1398.38 2420.13 1398.06 2422.79 1396.9 2424.82 1395.07 2424.88 1395.2 2424.93 1395.34 2424.97 1395.48 2425.68 1398.55 2426.8 1401.52 2428.11 1404.4 2428.97 1406.12 2429.93 1407.79 2431 1409.39 2428.96 1410.55 2426.83 1411.59 2424.56 1412.24 2423.93 1412.46 2423.27 1412.59 2422.64 1412.8 2421.43 1415.21 2420.16 1417.6 2418.94 1420 2416.91 1419.99 2414.88 1419.99 2412.84 1420 2411.58 1417.67 2410.41 1415.29 2409.17 1412.95 2409.06 1412.72 2408.76 1412.7 2408.55 1412.63 2405.8 1411.93 2403.19 1410.82 2400.73 1409.45 2400.15 1409.6 2399.6 1409.89 2399 1409.94 2399.35 1409.55 2399.54 1409.05 2399.79 1408.59 2402.42 1403.74 2403.97 1398.4 2404.85 1393Z" fill="#F6CA38" fill-rule="evenodd"/></g></svg>