<svg width="159" height="161" xmlns="http://www.w3.org/2000/svg" xmlns:xlink="http://www.w3.org/1999/xlink" xml:space="preserve" overflow="hidden"><defs><clipPath id="clip0"><rect x="2365" y="1087" width="159" height="161"/></clipPath><linearGradient x1="2404.41" y1="1071.97" x2="2484.59" y2="1259.03" gradientUnits="userSpaceOnUse" spreadMethod="reflect" id="fill1"><stop offset="0" stop-color="#E4E4E4"/><stop offset="0.5" stop-color="#F0F0F0"/><stop offset="1" stop-color="#FFFFFF"/></linearGradient></defs><g clip-path="url(#clip0)" transform="translate(-2365 -1087)"><path d="M2408.48 1090C2399.47 1090 2392.38 1090.17 2386.54 1090.98 2380.71 1091.8 2375.93 1093.32 2372.44 1096.22 2368.94 1099.11 2367.09 1103.07 2366.12 1107.92 2365.15 1112.76 2364.96 1118.66 2365.01 1126.15L2365.01 1169 2365.01 1211.87C2364.96 1219.35 2365.15 1225.24 2366.12 1230.08 2367.09 1234.93 2368.94 1238.89 2372.44 1241.78 2375.93 1244.68 2380.71 1246.2 2386.54 1247.01 2392.38 1247.83 2399.47 1248 2408.48 1248L2479.53 1248C2488.54 1248 2495.62 1247.83 2501.45 1247.01 2507.27 1246.2 2512.03 1244.67 2515.52 1241.78 2519 1238.88 2520.84 1234.92 2521.81 1230.08 2522.79 1225.24 2523 1219.36 2523 1211.87L2523 1169 2523 1126.13C2523 1118.64 2522.79 1112.76 2521.81 1107.92 2520.84 1103.08 2519 1099.12 2515.52 1096.22 2512.03 1093.33 2507.27 1091.8 2501.45 1090.98 2495.62 1090.17 2488.54 1090 2479.53 1090Z" fill="#000000" fill-rule="evenodd" fill-opacity="0.101961"/><path d="M2407.77 1088C2373.28 1088 2366.82 1091.12 2367 1121.58L2367 1165.5 2367 1209.42C2366.82 1239.88 2373.28 1243 2407.77 1243L2481.24 1243C2515.71 1243 2522 1239.88 2522 1209.42L2522 1165.5 2522 1121.58C2522 1091.12 2515.71 1088 2481.24 1088Z" fill="url(#fill1)" fill-rule="evenodd"/><path d="M2408.27 1088.5C2373.78 1088.5 2367.32 1091.62 2367.5 1122.08L2367.5 1166 2367.5 1209.92C2367.32 1240.38 2373.78 1243.5 2408.27 1243.5L2481.74 1243.5C2516.21 1243.5 2522.5 1240.38 2522.5 1209.92L2522.5 1166 2522.5 1122.08C2522.5 1091.62 2516.21 1088.5 2481.74 1088.5Z" stroke="#000000" stroke-width="3.4375" stroke-miterlimit="8" stroke-opacity="0.4" fill="none" fill-rule="evenodd"/><path d="M2387.5 1143.97C2384.64 1143.97 2382.39 1141.73 2382.39 1139.03 2382.39 1136.27 2384.71 1134.09 2387.5 1134.09 2390.36 1134.09 2392.61 1136.33 2392.61 1139.03 2392.61 1141.73 2390.36 1143.97 2387.5 1143.97L2387.5 1143.97ZM2397.92 1133.37 2399 1130.27 2396.55 1127.9 2393.35 1128.95C2392.54 1128.49 2391.58 1128.16 2390.7 1127.9L2389.2 1125 2385.8 1125 2384.3 1127.9C2383.35 1128.16 2382.46 1128.49 2381.65 1128.95L2378.45 1127.9 2376.06 1130.2 2377.08 1133.3C2376.61 1134.09 2376.27 1135.01 2376 1135.87L2373 1137.32 2373 1140.61 2376 1142.06C2376.27 1142.99 2376.61 1143.84 2377.08 1144.63L2376.06 1147.73 2378.45 1150.04 2381.65 1149.05C2382.46 1149.51 2383.35 1149.84 2384.3 1150.1L2385.8 1153 2389.2 1153 2390.7 1150.1C2391.65 1149.84 2392.54 1149.51 2393.35 1149.05L2396.55 1150.1 2398.94 1147.73 2397.92 1144.7C2398.39 1143.91 2398.73 1143.05 2399 1142.13L2402 1140.68 2402 1137.39 2399 1135.94C2398.73 1135.01 2398.39 1134.16 2397.92 1133.37Z" fill="#00ADEF" fill-rule="evenodd"/><path d="M2437.97 1111.01C2442.26 1111.03 2446.57 1110.95 2450.86 1111.05 2451.88 1112.98 2452.73 1115 2453.73 1116.95 2454.64 1118.69 2455.39 1120.52 2456.33 1122.25 2459.01 1123.02 2461.64 1124.01 2464.14 1125.24 2464.86 1125.6 2465.56 1126.01 2466.3 1126.32 2466.64 1126.34 2466.95 1126.16 2467.27 1126.07 2470.2 1125.08 2473.13 1124.11 2476.06 1123.13 2476.83 1122.88 2477.57 1122.58 2478.37 1122.42 2481.42 1125.46 2484.41 1128.57 2487.54 1131.53 2487.47 1131.73 2487.4 1131.94 2487.34 1132.15 2487.25 1132.41 2487.16 1132.66 2487.07 1132.92 2487.02 1133.12 2486.96 1133.31 2486.88 1133.5 2486.83 1133.7 2486.76 1133.89 2486.66 1134.07 2486.65 1134.17 2486.61 1134.36 2486.6 1134.45 2486.49 1134.71 2486.39 1134.97 2486.28 1135.22 2486.26 1135.32 2486.23 1135.51 2486.22 1135.61 2485.17 1138 2484.47 1140.54 2483.68 1143.03 2483.41 1143.76 2483.95 1144.38 2484.25 1144.99 2485.73 1147.67 2486.76 1150.57 2487.68 1153.48 2491.44 1155.31 2495.24 1157.06 2498.99 1158.93 2498.99 1163.22 2499.02 1167.52 2498.97 1171.82 2495.44 1173.55 2491.93 1175.33 2488.41 1177.09 2488.04 1177.25 2487.7 1177.54 2487.62 1177.97 2486.73 1181.15 2485.41 1184.2 2483.85 1187.12 2483.63 1187.41 2483.74 1187.76 2483.86 1188.07 2485.16 1191.82 2486.31 1195.62 2487.67 1199.35 2487.39 1199.77 2487.01 1200.11 2486.65 1200.47 2484.4 1202.72 2482.16 1204.97 2479.91 1207.21 2479.42 1207.71 2478.9 1208.18 2478.47 1208.74 2478.21 1208.54 2477.92 1208.42 2477.63 1208.32 2474.09 1207.11 2470.55 1205.95 2466.99 1204.82L2466.94 1204.8 2466.89 1204.8C2466.05 1204.6 2465.41 1205.28 2464.72 1205.61 2462.15 1206.98 2459.39 1207.97 2456.61 1208.84 2454.73 1212.55 2452.94 1216.31 2451 1219.98 2446.71 1220 2442.42 1220.01 2438.13 1219.98 2436.22 1216.3 2434.39 1212.57 2432.55 1208.85 2430.21 1208.05 2427.83 1207.31 2425.61 1206.22 2424.65 1205.82 2423.77 1205.26 2422.83 1204.83 2422.49 1204.66 2422.1 1204.78 2421.76 1204.9 2420.43 1205.37 2419.08 1205.82 2417.71 1206.18 2415.34 1207.02 2412.93 1207.74 2410.58 1208.62 2409.7 1207.9 2408.99 1206.98 2408.07 1206.3 2405.81 1204.05 2403.55 1201.81 2401.33 1199.53 2402.5 1195.94 2403.71 1192.36 2404.9 1188.78 2405.12 1188.18 2405.4 1187.48 2405.03 1186.88 2403.8 1184.78 2402.87 1182.52 2402.03 1180.25 2401.68 1179.35 2401.52 1178.4 2401.14 1177.51 2397.42 1175.66 2393.71 1173.82 2390.01 1171.93 2390 1167.64 2390 1163.35 2390 1159.05 2392.16 1157.93 2394.39 1156.94 2396.57 1155.84 2398.09 1155.13 2399.56 1154.31 2401.12 1153.65 2401.91 1151.41 2402.58 1149.12 2403.63 1146.97 2404.1 1145.77 2404.83 1144.71 2405.39 1143.56 2404.88 1142.06 2404.44 1140.52 2403.77 1139.07 2403.74 1138.86 2403.67 1138.67 2403.57 1138.49 2403.55 1138.39 2403.52 1138.2 2403.5 1138.11 2403.39 1137.86 2403.29 1137.6 2403.2 1137.34 2403.16 1137.14 2403.09 1136.94 2403.02 1136.76 2402.97 1136.55 2402.9 1136.36 2402.8 1136.18 2402.78 1136.09 2402.75 1135.9 2402.74 1135.8 2402.63 1135.62 2402.56 1135.43 2402.52 1135.23 2402.44 1135.04 2402.38 1134.85 2402.33 1134.65 2402.25 1134.46 2402.18 1134.27 2402.14 1134.07 2402.05 1133.82 2401.96 1133.56 2401.86 1133.3 2401.81 1133.1 2401.75 1132.91 2401.66 1132.73 2401.58 1132.31 2401.45 1131.9 2401.44 1131.48 2401.7 1131.11 2402.05 1130.82 2402.37 1130.5 2405 1127.88 2407.62 1125.24 2410.25 1122.61 2410.49 1122.3 2410.89 1122.53 2411.2 1122.59 2414.75 1123.78 2418.31 1124.96 2421.86 1126.15 2422.34 1126.33 2422.86 1126.21 2423.29 1125.95 2426.14 1124.28 2429.27 1123.15 2432.4 1122.16 2434.25 1118.44 2436.1 1114.72 2437.97 1111.01M2440.02 1114.3C2438.23 1117.86 2436.49 1121.45 2434.66 1124.99 2433.89 1125.28 2433.07 1125.4 2432.3 1125.69 2428.98 1126.67 2425.85 1128.16 2422.9 1129.96 2419.06 1128.7 2415.23 1127.39 2411.39 1126.13 2409.29 1128.23 2407.18 1130.33 2405.09 1132.44 2405.49 1133.57 2405.82 1134.71 2406.25 1135.82L2406.38 1135.9C2406.4 1136.13 2406.45 1136.36 2406.55 1136.57 2406.6 1136.77 2406.66 1136.96 2406.74 1137.15 2406.79 1137.35 2406.85 1137.54 2406.93 1137.73 2406.98 1137.92 2407.05 1138.11 2407.12 1138.3 2407.17 1138.5 2407.24 1138.69 2407.32 1138.88 2407.37 1139.07 2407.43 1139.26 2407.51 1139.46 2407.56 1139.65 2407.62 1139.84 2407.7 1140.03 2407.74 1140.24 2407.81 1140.43 2407.92 1140.61 2407.93 1140.7 2407.97 1140.89 2407.98 1140.99 2408.36 1141.92 2408.51 1142.93 2408.86 1143.88 2408.68 1144.21 2408.52 1144.56 2408.38 1144.92 2406.38 1148.35 2404.96 1152.09 2403.98 1155.93 2400.42 1157.65 2396.87 1159.4 2393.3 1161.12 2393.27 1164.05 2393.3 1166.98 2393.29 1169.91 2396.76 1171.67 2400.25 1173.4 2403.72 1175.15 2404.06 1175.28 2404.08 1175.7 2404.18 1176 2405.16 1179.8 2406.73 1183.44 2408.75 1186.8 2409.05 1187.19 2408.72 1187.64 2408.62 1188.04 2407.45 1191.57 2406.24 1195.09 2405.11 1198.64 2406.59 1200.06 2408.01 1201.54 2409.47 1202.98 2409.88 1203.37 2410.24 1203.84 2410.73 1204.15 2410.93 1204.32 2411.12 1204.51 2411.29 1204.7 2411.56 1204.68 2411.85 1204.72 2412.08 1204.55 2412.27 1204.5 2412.47 1204.44 2412.65 1204.36 2412.86 1204.32 2413.05 1204.25 2413.23 1204.14 2413.32 1204.13 2413.51 1204.1 2413.61 1204.08 2413.79 1203.98 2413.98 1203.91 2414.18 1203.86 2414.37 1203.79 2414.56 1203.72 2414.76 1203.68 2415.02 1203.58 2415.27 1203.49 2415.53 1203.4 2415.73 1203.35 2415.92 1203.29 2416.11 1203.21 2416.3 1203.16 2416.5 1203.09 2416.68 1203.02 2416.88 1202.97 2417.07 1202.9 2417.26 1202.82 2417.46 1202.78 2417.65 1202.71 2417.84 1202.61 2417.93 1202.59 2418.12 1202.56 2418.21 1202.55 2418.39 1202.44 2418.58 1202.37 2418.79 1202.33 2418.98 1202.25 2419.17 1202.19 2419.37 1202.14 2419.62 1202.04 2419.88 1201.95 2420.13 1201.87 2420.19 1201.86 2420.29 1201.83 2420.35 1201.81 2421.21 1201.73 2422 1201.3 2422.83 1201.08 2426.35 1203.11 2430.11 1204.76 2434.04 1205.8 2434.36 1205.91 2434.78 1205.93 2434.94 1206.28 2436.71 1209.76 2438.4 1213.3 2440.21 1216.76 2443.13 1216.74 2446.04 1216.75 2448.96 1216.76 2450.71 1213.19 2452.53 1209.64 2454.27 1206.06 2455.18 1205.74 2456.12 1205.56 2457.02 1205.23 2460.29 1204.26 2463.34 1202.72 2466.26 1200.99 2466.33 1201.05 2466.46 1201.17 2466.52 1201.23 2466.63 1201.24 2466.85 1201.25 2466.96 1201.26 2467.2 1201.38 2467.47 1201.47 2467.73 1201.56 2467.92 1201.61 2468.12 1201.67 2468.31 1201.75 2468.51 1201.79 2468.7 1201.86 2468.88 1201.97 2468.97 1201.98 2469.16 1202.02 2469.26 1202.03 2469.44 1202.13 2469.63 1202.21 2469.84 1202.25 2470.02 1202.33 2470.21 1202.39 2470.41 1202.44 2470.6 1202.52 2470.79 1202.58 2470.98 1202.63 2471.17 1202.71 2471.37 1202.77 2471.56 1202.82 2471.75 1202.91 2471.94 1202.97 2472.14 1203.01 2472.4 1203.1 2472.66 1203.2 2472.91 1203.31 2473 1203.33 2473.19 1203.36 2473.29 1203.38 2473.47 1203.48 2473.66 1203.55 2473.86 1203.6 2474.05 1203.67 2474.24 1203.73 2474.44 1203.79 2474.63 1203.86 2474.82 1203.92 2475.02 1203.98 2475.2 1204.05 2475.39 1204.12 2475.59 1204.17 2475.78 1204.24 2475.97 1204.31 2476.17 1204.36 2476.35 1204.44 2476.55 1204.5 2476.74 1204.55 2477 1204.66 2477.31 1204.68 2477.5 1204.9 2477.61 1204.79 2477.72 1204.68 2477.84 1204.57 2478.14 1204.43 2478.36 1204.17 2478.59 1203.94 2480.35 1202.15 2482.15 1200.4 2483.9 1198.6 2482.61 1194.8 2481.39 1190.98 2480.08 1187.18 2480.38 1186.53 2480.76 1185.93 2481.08 1185.28 2482.81 1182.09 2484.11 1178.67 2484.99 1175.15 2488.55 1173.33 2492.14 1171.58 2495.7 1169.76 2495.68 1166.82 2495.73 1163.87 2495.67 1160.93 2493.54 1160 2491.48 1158.92 2489.38 1157.94 2487.87 1157.21 2486.34 1156.52 2484.86 1155.73 2484.23 1153.35 2483.48 1150.98 2482.44 1148.74 2481.77 1147.12 2480.85 1145.63 2480.04 1144.08L2479.9 1144.13C2479.92 1143.84 2479.86 1143.52 2480.08 1143.29 2480.09 1143.2 2480.12 1143.01 2480.14 1142.91 2480.25 1142.66 2480.34 1142.4 2480.44 1142.14 2480.47 1141.93 2480.54 1141.74 2480.65 1141.56 2480.67 1141.47 2480.7 1141.28 2480.71 1141.18 2480.81 1141 2480.89 1140.81 2480.93 1140.61 2481.02 1140.35 2481.11 1140.09 2481.2 1139.84 2481.25 1139.64 2481.31 1139.44 2481.39 1139.26 2481.44 1139.06 2481.51 1138.87 2481.58 1138.68 2481.63 1138.48 2481.7 1138.29 2481.78 1138.1 2481.83 1137.91 2481.89 1137.71 2481.97 1137.53 2482.02 1137.33 2482.08 1137.14 2482.16 1136.95 2482.21 1136.75 2482.27 1136.56 2482.35 1136.37 2482.39 1136.17 2482.46 1135.98 2482.57 1135.8 2482.58 1135.7 2482.61 1135.51 2482.63 1135.42 2482.75 1135.17 2482.84 1134.91 2482.93 1134.65 2482.99 1134.38 2483.08 1134.13 2483.18 1133.88 2483.42 1133.42 2483.59 1132.92 2483.76 1132.44 2481.65 1130.33 2479.56 1128.22 2477.45 1126.12 2473.8 1127.36 2470.14 1128.54 2466.51 1129.8 2466.28 1129.85 2466.02 1130 2465.8 1129.84 2463.55 1128.57 2461.22 1127.4 2458.78 1126.51 2457.23 1125.87 2455.57 1125.5 2453.99 1124.96 2452.23 1121.43 2450.54 1117.86 2448.81 1114.31 2445.88 1114.29 2442.95 1114.3 2440.02 1114.3Z" fill-rule="evenodd"/><path d="M2439.54 1146.59C2441.12 1146.32 2442.7 1145.99 2444.31 1146.01 2446.1 1145.95 2447.88 1146.28 2449.63 1146.64L2449.88 1146.7C2450.28 1146.79 2450.68 1146.9 2451.03 1147.11 2451.36 1147.21 2451.69 1147.31 2452.02 1147.41 2453.99 1148.33 2455.92 1149.42 2457.52 1150.91 2458.37 1151.83 2459.37 1152.61 2460.05 1153.66 2461.33 1155.23 2462.19 1157.09 2462.97 1158.94 2463.09 1159.35 2463.19 1159.77 2463.39 1160.16 2463.57 1161.61 2463.97 1163.03 2463.99 1164.5 2464 1165.75 2464.04 1167.01 2463.83 1168.25 2463.73 1169.11 2463.46 1169.94 2463.38 1170.8 2463.27 1171.05 2463.22 1171.33 2463.17 1171.6 2462.48 1172.95 2461.95 1174.39 2461.13 1175.67 2460.19 1177.23 2458.99 1178.62 2457.69 1179.88 2454.73 1182.65 2450.86 1184.39 2446.85 1184.88 2443.82 1185.19 2440.7 1184.91 2437.84 1183.83 2434.14 1182.47 2430.88 1179.97 2428.59 1176.77 2428.1 1176.11 2427.67 1175.4 2427.19 1174.73 2427.17 1174.63 2427.14 1174.44 2427.12 1174.34 2426.81 1173.77 2426.53 1173.18 2426.23 1172.6 2426.05 1172 2425.87 1171.4 2425.63 1170.82 2425.6 1170.64 2425.58 1170.46 2425.55 1170.29 2425.47 1170.03 2425.4 1169.76 2425.32 1169.5 2425.16 1168.97 2425.28 1168.39 2425.04 1167.88 2424.97 1166.76 2425.03 1165.63 2425.01 1164.51 2425.02 1163.94 2424.94 1163.35 2425.15 1162.81 2425.17 1161.96 2425.55 1161.19 2425.73 1160.37 2426.39 1157.81 2427.69 1155.46 2429.23 1153.32 2431.15 1151.11 2433.45 1149.2 2436.11 1147.94 2437.21 1147.38 2438.41 1147.07 2439.54 1146.59M2443.62 1149.49C2443.1 1149.51 2442.59 1149.5 2442.07 1149.52 2441.76 1149.85 2441.23 1149.56 2440.9 1149.85 2440.63 1149.9 2440.33 1149.86 2440.11 1150.05 2439.86 1150.08 2439.58 1150.07 2439.35 1150.21 2437.55 1150.61 2435.95 1151.66 2434.49 1152.76 2434.16 1152.99 2434.03 1153.4 2433.7 1153.63 2432.64 1154.33 2431.87 1155.39 2431.14 1156.41 2429.93 1158.29 2428.73 1160.35 2428.69 1162.65 2428.27 1163.15 2428.77 1163.91 2428.35 1164.41 2428.26 1165.41 2428.21 1166.44 2428.47 1167.42 2428.54 1167.78 2428.45 1168.19 2428.68 1168.51 2428.72 1168.77 2428.68 1169.07 2428.88 1169.28 2428.9 1169.47 2428.92 1169.66 2428.94 1169.86 2429.21 1170.23 2429.2 1170.71 2429.35 1171.13 2431.28 1176.43 2436.19 1180.56 2441.78 1181.41 2443.19 1181.72 2444.64 1181.56 2446.08 1181.59 2449.04 1181.33 2451.89 1180.15 2454.28 1178.39 2455.14 1177.78 2455.8 1176.96 2456.59 1176.26 2457.16 1175.77 2457.58 1175.13 2458.01 1174.51 2458.67 1173.63 2458.88 1172.53 2459.49 1171.62 2459.5 1171.52 2459.53 1171.33 2459.54 1171.23 2459.65 1171.05 2459.72 1170.85 2459.77 1170.65 2459.84 1170.45 2459.91 1170.26 2459.96 1170.06 2460.14 1169.75 2460.04 1169.36 2460.27 1169.08 2460.28 1168.89 2460.3 1168.69 2460.32 1168.5 2460.72 1168.06 2460.25 1167.37 2460.67 1166.93 2460.69 1166.03 2460.69 1165.12 2460.67 1164.22 2460.23 1163.72 2460.74 1162.97 2460.33 1162.46 2460.28 1162.19 2460.32 1161.9 2460.14 1161.68 2460.1 1161.41 2460.1 1161.13 2459.96 1160.9 2459.92 1160.69 2459.84 1160.49 2459.74 1160.31 2459.72 1160.22 2459.69 1160.03 2459.68 1159.93 2459.56 1159.75 2459.5 1159.55 2459.47 1159.34 2459.3 1159.02 2459.15 1158.7 2458.98 1158.38 2458.88 1158.18 2458.78 1157.97 2458.69 1157.76 2458.21 1157.02 2457.8 1156.22 2457.16 1155.6 2457.13 1155.92 2457.1 1156.23 2457.07 1156.55 2457.06 1156.13 2457.08 1155.72 2457.12 1155.32 2456.33 1154.47 2455.53 1153.64 2454.66 1152.88 2454.38 1152.9 2454.11 1152.92 2453.84 1152.94 2454.07 1152.89 2454.3 1152.85 2454.53 1152.81 2451.97 1150.65 2448.64 1149.45 2445.29 1149.33 2444.75 1149.36 2444.09 1149.13 2443.62 1149.49Z" fill-rule="evenodd"/><path d="M2440.08 1114C2443.02 1114.01 2445.96 1113.99 2448.9 1114.01 2450.64 1117.6 2452.34 1121.22 2454.11 1124.79 2455.69 1125.34 2457.36 1125.71 2458.91 1126.35 2461.36 1127.26 2463.7 1128.44 2465.97 1129.73 2466.19 1129.89 2466.45 1129.74 2466.67 1129.68 2470.32 1128.41 2474 1127.22 2477.66 1125.96 2479.78 1128.08 2481.89 1130.22 2484 1132.35 2483.83 1132.85 2483.66 1133.35 2483.42 1133.81 2481.89 1134.91 2480.45 1136.14 2478.8 1137.07 2478.08 1137.67 2477.16 1137.95 2476.4 1138.5 2475.52 1139.01 2474.56 1139.4 2473.68 1139.92 2473.58 1139.93 2473.4 1139.95 2473.31 1139.96 2472.86 1140.22 2472.38 1140.43 2471.94 1140.7 2471.85 1140.7 2471.66 1140.72 2471.56 1140.73 2471.37 1140.85 2471.17 1140.97 2470.98 1141.1 2470.89 1141.1 2470.69 1141.11 2470.6 1141.11 2470.41 1141.24 2470.21 1141.36 2470.02 1141.48 2469.92 1141.49 2469.73 1141.5 2469.64 1141.5 2469.44 1141.63 2469.25 1141.75 2469.05 1141.87 2468.96 1141.88 2468.77 1141.89 2468.68 1141.9 2468.48 1142.01 2468.29 1142.12 2468.1 1142.23 2467.89 1142.29 2467.69 1142.35 2467.5 1142.42 2467.41 1142.44 2467.23 1142.48 2467.14 1142.5 2466.88 1142.61 2466.61 1142.71 2466.34 1142.82 2466.25 1142.84 2466.08 1142.88 2465.99 1142.89 2465.8 1142.97 2465.6 1143.04 2465.41 1143.11 2465.22 1143.18 2465.02 1143.24 2464.83 1143.31 2464.63 1143.37 2464.44 1143.42 2464.24 1143.48 2464.05 1143.58 2463.85 1143.68 2463.66 1143.79 2463.39 1143.83 2463.12 1143.88 2462.86 1143.96 2462.78 1143.99 2462.61 1144.04 2462.52 1144.07 2462.19 1144.17 2461.85 1144.26 2461.52 1144.36 2461.43 1144.39 2461.26 1144.44 2461.18 1144.46 2460.92 1144.54 2460.66 1144.6 2460.41 1144.66 2460.07 1144.76 2459.73 1144.84 2459.4 1144.94 2459.31 1144.97 2459.14 1145.02 2459.06 1145.05 2458.8 1145.12 2458.55 1145.19 2458.29 1145.26 2457.89 1145.35 2457.47 1145.4 2457.08 1145.53 2456.9 1145.56 2456.73 1145.59 2456.56 1145.63 2456.16 1145.75 2455.74 1145.8 2455.34 1145.91 2455.02 1145.96 2454.68 1145.98 2454.38 1146.12 2454.14 1146.15 2453.9 1146.17 2453.67 1146.2 2453.31 1146.38 2452.9 1146.35 2452.51 1146.4 2452.15 1146.58 2451.74 1146.55 2451.36 1146.59 2450.94 1146.8 2450.46 1146.73 2450.01 1146.78 2449.9 1146.83 2449.67 1146.95 2449.56 1147 2447.82 1146.64 2446.07 1146.31 2444.29 1146.37 2442.7 1146.35 2441.14 1146.68 2439.58 1146.95 2434.46 1146.36 2429.39 1145.32 2424.42 1143.93 2422.65 1143.27 2420.79 1142.88 2419.05 1142.14 2417.14 1141.44 2415.23 1140.72 2413.39 1139.85 2411.69 1138.95 2409.91 1138.2 2408.27 1137.17 2407.61 1136.73 2406.98 1136.26 2406.3 1135.86L2406.17 1135.78C2405.73 1134.66 2405.4 1133.5 2405 1132.36 2407.1 1130.22 2409.22 1128.1 2411.33 1125.97 2415.18 1127.25 2419.03 1128.58 2422.88 1129.84 2425.84 1128.03 2428.99 1126.52 2432.32 1125.53 2433.09 1125.23 2433.92 1125.11 2434.69 1124.82 2436.53 1121.24 2438.27 1117.6 2440.08 1114Z" fill="#41B349" fill-rule="evenodd"/><path d="M2479.37 1144.31C2479.6 1144.22 2479.82 1144.13 2480.05 1144.05L2480.19 1144C2481.02 1145.53 2481.95 1147.02 2482.62 1148.62 2483.67 1150.85 2484.43 1153.2 2485.06 1155.56 2486.55 1156.34 2488.1 1157.03 2489.62 1157.75 2491.74 1158.72 2493.82 1159.79 2495.97 1160.71 2496.03 1163.63 2495.97 1166.56 2496 1169.48 2492.41 1171.28 2488.78 1173.02 2485.19 1174.82 2484.3 1178.31 2483 1181.71 2481.25 1184.87 2480.93 1185.51 2480.54 1186.11 2480.24 1186.76 2481.56 1190.52 2482.79 1194.31 2484.1 1198.08 2482.33 1199.87 2480.51 1201.6 2478.73 1203.38 2478.5 1203.61 2478.28 1203.86 2477.98 1204 2476.31 1202.6 2474.97 1200.89 2473.63 1199.2 2471.81 1196.6 2470.05 1193.94 2468.66 1191.09 2465.89 1185.3 2463.99 1179.09 2463.23 1172.73 2462.99 1171.99 2463.03 1171.21 2463 1170.44 2463.08 1169.6 2463.35 1168.79 2463.45 1167.95 2463.65 1166.73 2463.62 1165.51 2463.61 1164.28 2463.59 1162.84 2463.19 1161.45 2463.01 1160.03 2463.48 1159.56 2463 1158.79 2463.39 1158.25 2463.44 1157.75 2463.32 1157.2 2463.58 1156.73 2463.6 1156.49 2463.62 1156.26 2463.65 1156.02 2463.87 1155.59 2463.75 1155.07 2463.95 1154.63 2463.99 1154.31 2464.01 1153.98 2464.15 1153.68 2464.18 1153.51 2464.2 1153.33 2464.24 1153.16 2464.34 1152.83 2464.43 1152.49 2464.54 1152.16 2464.56 1151.98 2464.59 1151.81 2464.62 1151.63 2464.79 1151.33 2464.77 1150.98 2464.79 1150.65 2464.95 1150.18 2465.38 1149.95 2465.85 1149.85 2466.04 1149.79 2466.24 1149.73 2466.44 1149.67 2466.63 1149.6 2466.82 1149.53 2467.02 1149.45 2467.11 1149.44 2467.3 1149.41 2467.39 1149.4 2467.58 1149.28 2467.77 1149.17 2467.97 1149.05 2468.06 1149.04 2468.25 1149.01 2468.34 1149 2468.53 1148.93 2468.73 1148.85 2468.93 1148.79 2469.19 1148.7 2469.46 1148.61 2469.73 1148.5 2469.82 1148.48 2469.99 1148.44 2470.08 1148.42 2470.28 1148.35 2470.48 1148.29 2470.69 1148.23 2470.88 1148.12 2471.07 1148.02 2471.27 1147.91 2471.36 1147.9 2471.55 1147.89 2471.65 1147.88 2471.84 1147.76 2472.03 1147.64 2472.23 1147.52 2472.33 1147.52 2472.52 1147.51 2472.62 1147.5 2472.81 1147.38 2473 1147.26 2473.19 1147.14 2473.29 1147.13 2473.48 1147.12 2473.58 1147.11 2473.9 1146.93 2474.23 1146.76 2474.56 1146.58 2474.65 1146.57 2474.84 1146.55 2474.94 1146.54 2475.37 1146.29 2475.83 1146.07 2476.28 1145.85 2476.61 1145.69 2476.94 1145.52 2477.28 1145.36 2477.53 1145.23 2477.79 1145.11 2478.05 1144.98 2478.49 1144.76 2478.94 1144.55 2479.37 1144.31Z" fill="#708FC5" fill-rule="evenodd"/><path d="M2403.89 1155.97C2404.89 1152.15 2406.34 1148.42 2408.38 1145 2412.58 1147.12 2417.04 1148.7 2421.54 1150.09 2421.69 1151.79 2422.18 1153.45 2422.34 1155.15 2422.46 1156.43 2422.76 1157.7 2422.74 1158.99 2422.79 1159.5 2422.96 1160 2422.94 1160.52 2423.03 1163.73 2423 1166.94 2422.97 1170.15 2422.53 1170.94 2423.06 1171.9 2422.63 1172.69 2422.62 1173.32 2422.55 1173.94 2422.4 1174.55 2421.32 1182.7 2418.89 1190.71 2414.93 1197.98 2413.65 1200.05 2412.5 1202.23 2410.78 1204 2410.27 1203.69 2409.91 1203.23 2409.48 1202.83 2408 1201.4 2406.55 1199.93 2405.04 1198.51 2406.2 1194.98 2407.43 1191.47 2408.62 1187.95 2408.72 1187.55 2409.06 1187.11 2408.75 1186.72 2406.69 1183.37 2405.1 1179.75 2404.1 1175.96 2403.99 1175.66 2403.97 1175.25 2403.63 1175.11 2400.09 1173.37 2396.54 1171.65 2393 1169.9 2393.01 1166.97 2392.98 1164.05 2393.02 1161.13 2396.65 1159.43 2400.26 1157.68 2403.89 1155.97Z" fill="#DA4A37" fill-rule="evenodd"/><path d="M2467 1205 2467.52 1205.08 2468 1206C2467.75 1205.69 2467.25 1205.23 2467 1205Z" fill="#DA4A37" fill-rule="evenodd"/><path d="M2428.41 1176C2430.67 1179.23 2433.89 1181.74 2437.54 1183.11 2440.36 1184.2 2443.43 1184.49 2446.42 1184.17 2450.38 1183.68 2454.19 1181.92 2457.11 1179.14 2457.2 1179.34 2457.27 1179.55 2457.33 1179.77 2458.35 1184.43 2459.97 1188.94 2461.84 1193.31 2463.08 1195.92 2464.46 1198.46 2466 1200.89 2463.07 1202.66 2460.01 1204.23 2456.74 1205.22 2455.84 1205.55 2454.89 1205.74 2453.99 1206.07 2452.24 1209.73 2450.42 1213.35 2448.66 1217 2445.74 1216.98 2442.82 1216.98 2439.9 1217 2438.09 1213.46 2436.4 1209.85 2434.62 1206.29 2434.46 1205.94 2434.04 1205.91 2433.72 1205.81 2429.78 1204.74 2426.02 1203.06 2422.49 1200.98 2421.66 1201.21 2420.87 1201.64 2420 1201.73 2420.51 1201.12 2420.77 1200.37 2421.14 1199.68 2424.92 1192.31 2427.14 1184.19 2428.41 1176Z" fill="#F6CA38" fill-rule="evenodd"/><path d="M2501.5 1143.97C2498.64 1143.97 2496.39 1141.73 2496.39 1139.03 2496.39 1136.27 2498.71 1134.09 2501.5 1134.09 2504.36 1134.09 2506.61 1136.33 2506.61 1139.03 2506.61 1141.73 2504.36 1143.97 2501.5 1143.97L2501.5 1143.97ZM2511.92 1133.37 2513 1130.27 2510.55 1127.9 2507.35 1128.95C2506.54 1128.49 2505.58 1128.16 2504.7 1127.9L2503.2 1125 2499.8 1125 2498.3 1127.9C2497.35 1128.16 2496.46 1128.49 2495.65 1128.95L2492.45 1127.9 2490.06 1130.2 2491.08 1133.3C2490.61 1134.09 2490.27 1135.01 2490 1135.87L2487 1137.32 2487 1140.61 2490 1142.06C2490.27 1142.99 2490.61 1143.84 2491.08 1144.63L2490.06 1147.73 2492.45 1150.04 2495.65 1149.05C2496.46 1149.51 2497.35 1149.84 2498.3 1150.1L2499.8 1153 2503.2 1153 2504.7 1150.1C2505.65 1149.84 2506.54 1149.51 2507.35 1149.05L2510.55 1150.1 2512.94 1147.73 2511.92 1144.7C2512.39 1143.91 2512.73 1143.05 2513 1142.13L2516 1140.68 2516 1137.39 2513 1135.94C2512.73 1135.01 2512.39 1134.16 2511.92 1133.37Z" fill="#00ADEF" fill-rule="evenodd"/></g></svg>