<svg width="919" height="919" xmlns="http://www.w3.org/2000/svg" xmlns:xlink="http://www.w3.org/1999/xlink" xml:space="preserve" overflow="hidden"><defs><clipPath id="clip0"><rect x="1128" y="77" width="919" height="919"/></clipPath><linearGradient x1="1717.12" y1="-2.35063" x2="1457.88" y2="1075.35" gradientUnits="userSpaceOnUse" spreadMethod="reflect" id="fill1"><stop offset="0" stop-color="#2C2C3D"/><stop offset="0.5" stop-color="#232332"/><stop offset="1" stop-color="#1A1A27"/></linearGradient><linearGradient x1="1366.84" y1="285.986" x2="1572.16" y2="525.015" gradientUnits="userSpaceOnUse" spreadMethod="reflect" id="fill2"><stop offset="0" stop-color="#FFFFFF"/><stop offset="0.5" stop-color="#FFFFFF" stop-opacity="0.772549"/><stop offset="1" stop-color="#FFFFFF" stop-opacity="0.54902"/></linearGradient><linearGradient x1="1817.47" y1="802.001" x2="1614.53" y2="541.999" gradientUnits="userSpaceOnUse" spreadMethod="reflect" id="fill3"><stop offset="0" stop-color="#6966FF"/><stop offset="0.5" stop-color="#6966FF" stop-opacity="0.678431"/><stop offset="1" stop-color="#6966FF" stop-opacity="0.356863"/></linearGradient></defs><g clip-path="url(#clip0)" transform="translate(-1128 -77)"><path d="M1587.5 77C1841.24 77 2047 282.764 2047 536.5 2047 790.236 1841.24 996 1587.5 996 1333.76 996 1128 790.236 1128 536.5 1128 282.764 1333.76 77 1587.5 77L1587.5 77Z" fill="url(#fill1)" fill-rule="evenodd"/><path d="M1708.65 291 1352 793.001 1461.5 793.001 1820 291 1708.65 291Z" fill="#FFFFFF" fill-rule="evenodd"/><path d="M1472.93 291 1578 439.176 1523.18 520.001 1361 291 1472.93 291Z" fill="url(#fill2)" fill-rule="evenodd"/><path d="M1719.42 793 1603 629.428 1657.79 551 1829 793 1719.42 793Z" fill="url(#fill3)" fill-rule="evenodd"/></g></svg>