<?xml version="1.0" encoding="UTF-8" ?>
<!DOCTYPE svg PUBLIC "-//W3C//DTD SVG 1.1//EN" "http://www.w3.org/Graphics/SVG/1.1/DTD/svg11.dtd">
<svg width="960pt" height="1601pt" viewBox="0 0 960 1601" version="1.1" xmlns="http://www.w3.org/2000/svg">
<g id="#ff9c92ff">
<path fill="#ff9c92" opacity="1.00" d=" M 479.38 0.00 L 479.61 0.00 C 498.82 33.77 518.66 67.20 538.12 100.84 C 678.43 341.92 818.76 582.99 959.08 824.07 C 799.19 924.85 639.34 1025.68 479.40 1126.36 C 479.29 755.59 479.38 384.81 479.34 14.04 C 479.24 10.32 479.63 6.58 479.10 2.89 L 478.30 2.18 C 478.67 1.47 479.03 0.74 479.38 0.00 M 550.55 263.93 C 550.70 374.17 550.38 484.43 550.71 594.67 C 550.32 621.53 550.73 648.41 550.50 675.28 L 550.63 675.34 C 550.61 782.85 550.62 890.36 550.62 997.87 C 607.56 962.04 664.45 926.13 721.37 890.28 C 754.59 869.20 788.08 848.51 821.13 827.19 C 825.57 825.22 829.43 822.06 833.67 819.66 C 843.45 813.31 853.48 807.33 863.20 800.89 C 854.88 785.25 845.32 770.24 836.72 754.74 C 818.10 723.41 800.01 691.76 781.59 660.30 C 705.56 529.67 629.52 399.05 553.49 268.41 C 552.54 266.90 551.87 265.16 550.55 263.93 Z" />
</g>
<g id="#ffe94dff">
<path fill="#ffe94d" opacity="1.00" d=" M 478.30 2.18 L 479.10 2.89 C 479.63 6.58 479.24 10.32 479.34 14.04 C 479.38 384.81 479.29 755.59 479.40 1126.36 C 319.65 1025.55 159.81 924.88 0.00 824.17 L 0.00 823.85 C 159.48 549.99 318.84 276.06 478.30 2.18 M 361.80 343.49 C 282.02 480.53 202.27 617.57 122.49 754.61 L 121.64 754.03 C 122.47 755.27 121.09 756.45 120.65 757.57 C 113.25 770.21 105.91 782.88 98.54 795.54 C 97.54 797.33 96.20 798.99 95.71 801.03 C 109.76 809.77 123.60 818.87 137.79 827.37 C 227.97 884.18 318.10 941.08 408.32 997.83 C 408.32 890.31 408.25 782.79 408.36 675.28 C 408.51 648.40 408.61 621.49 408.31 594.61 C 408.43 484.35 408.38 374.09 408.34 263.83 C 392.57 290.22 377.35 316.96 361.80 343.49 Z" />
</g>
<g id="#86d145bf">
<path fill="#86d145" opacity="0.75" d=" M 306.63 651.63 C 340.55 632.67 374.28 613.37 408.31 594.61 C 408.61 621.49 408.51 648.40 408.36 675.28 C 318.15 725.93 228.02 776.73 137.79 827.37 C 123.60 818.87 109.76 809.77 95.71 801.03 C 96.20 798.99 97.54 797.33 98.54 795.54 C 105.91 782.88 113.25 770.21 120.65 757.57 C 121.09 756.45 122.47 755.27 121.64 754.03 L 122.49 754.61 C 122.92 754.52 123.77 754.33 124.19 754.24 C 184.99 720.00 245.82 685.84 306.63 651.63 Z" />
</g>
<g id="#ca70c3bf">
<path fill="#ca70c3" opacity="0.75" d=" M 550.71 594.67 C 564.47 602.01 577.93 609.92 591.58 617.48 C 671.37 662.35 751.16 707.22 830.95 752.08 C 832.80 753.09 834.55 754.51 836.72 754.74 C 845.32 770.24 854.88 785.25 863.20 800.89 C 853.48 807.33 843.45 813.31 833.67 819.66 C 829.43 822.06 825.57 825.22 821.13 827.19 C 782.73 805.96 744.60 784.21 706.30 762.77 C 654.39 733.66 602.61 704.32 550.63 675.34 L 550.50 675.28 C 550.73 648.41 550.32 621.53 550.71 594.67 Z" />
</g>
<g id="#53d3e0ff">
<path fill="#53d3e0" opacity="1.00" d=" M 0.62 907.00 C 160.54 1007.38 320.39 1107.87 480.25 1208.34 C 480.29 1332.24 480.24 1456.14 480.27 1580.05 C 480.11 1586.49 480.61 1592.95 479.88 1599.38 C 472.89 1590.18 466.66 1580.41 459.97 1571.00 C 367.26 1437.03 274.56 1303.05 181.85 1169.09 C 121.47 1081.70 60.87 994.47 0.62 907.00 M 255.63 1150.91 C 285.18 1193.80 314.90 1236.59 344.51 1279.44 C 366.09 1310.45 387.35 1341.69 409.12 1372.55 C 409.23 1330.73 409.17 1288.90 409.15 1247.07 C 373.29 1224.60 337.48 1202.05 301.64 1179.54 C 286.26 1170.07 271.18 1160.05 255.63 1150.91 Z" />
</g>
<g id="#5a9dedff">
<path fill="#5a9ded" opacity="1.00" d=" M 480.25 1208.34 C 640.20 1107.93 800.04 1007.35 960.00 906.97 L 960.00 907.30 C 915.25 971.54 870.87 1036.05 826.26 1100.39 C 712.88 1264.25 599.48 1428.11 486.10 1591.97 C 484.67 1593.91 483.58 1596.20 481.59 1597.68 C 481.19 1598.74 480.86 1599.85 480.61 1601.00 L 480.21 1601.00 C 480.13 1600.59 479.96 1599.78 479.88 1599.38 C 480.61 1592.95 480.11 1586.49 480.27 1580.05 C 480.24 1456.14 480.29 1332.24 480.25 1208.34 M 659.49 1179.20 C 623.46 1201.90 587.32 1224.41 551.38 1247.23 C 551.48 1288.85 551.42 1330.48 551.41 1372.11 C 552.86 1371.31 553.53 1369.71 554.48 1368.45 C 604.62 1295.92 654.88 1223.45 704.97 1150.89 C 689.59 1159.93 674.69 1169.83 659.49 1179.20 Z" />
</g>
</svg>
