<?xml version="1.0" encoding="UTF-8" ?>
<!DOCTYPE svg PUBLIC "-//W3C//DTD SVG 1.1//EN" "http://www.w3.org/Graphics/SVG/1.1/DTD/svg11.dtd">
<svg width="900pt" height="900pt" viewBox="0 0 900 900" version="1.1" xmlns="http://www.w3.org/2000/svg">
<g id="#04795bff">
<path fill="#04795b" opacity="1.00" d=" M 439.53 0.00 L 461.45 0.00 C 505.47 1.42 549.37 8.66 591.18 22.62 C 659.24 44.97 721.65 84.09 771.67 135.34 C 819.69 184.29 856.32 244.38 877.63 309.57 C 891.61 351.78 898.83 396.11 900.00 440.53 L 900.00 461.45 C 898.13 526.22 882.65 590.64 853.84 648.74 C 831.79 693.53 802.16 734.57 766.68 769.69 C 726.03 810.03 677.62 842.53 624.84 864.77 C 573.23 886.69 517.45 898.29 461.45 900.00 L 438.54 900.00 C 405.82 898.82 373.16 894.79 341.38 886.77 C 271.16 869.50 205.40 834.70 151.40 786.65 C 97.63 739.02 55.44 678.37 29.77 611.27 C 14.37 571.19 4.80 528.89 1.44 486.09 C 0.68 477.90 0.57 469.66 0.00 461.46 L 0.00 438.55 C 1.19 405.27 5.33 372.03 13.63 339.75 C 35.21 253.14 83.70 173.63 150.32 114.30 C 209.96 60.90 284.09 23.74 362.71 8.51 C 388.00 3.35 413.76 0.93 439.53 0.00 M 395.07 158.08 C 357.75 165.03 321.86 179.39 289.93 199.91 C 260.98 218.39 235.51 242.11 214.40 269.18 C 215.56 270.49 216.75 271.77 217.97 273.03 C 281.46 336.20 344.66 399.67 408.05 462.94 C 422.11 476.65 435.67 490.88 449.88 504.43 C 521.46 432.83 593.01 361.20 664.62 289.62 C 671.31 282.68 678.51 276.20 684.91 269.01 C 682.64 265.11 679.53 261.78 676.75 258.25 C 643.03 218.56 598.92 187.65 549.79 170.23 C 500.51 152.52 446.51 148.43 395.07 158.08 M 163.49 371.42 C 147.37 430.22 149.83 494.00 170.78 551.29 C 182.57 583.78 200.17 614.12 222.40 640.58 C 263.80 690.07 321.74 725.49 384.77 739.40 C 429.76 749.42 477.07 748.85 521.80 737.72 C 558.04 728.69 592.52 712.66 622.83 690.83 C 673.88 654.27 712.86 601.14 732.12 541.35 C 745.79 499.54 749.51 454.72 744.26 411.12 C 739.18 370.58 725.51 331.03 703.99 296.27 C 687.89 311.99 672.10 328.05 656.17 343.95 C 666.31 356.56 674.20 371.10 678.12 386.85 C 684.13 410.39 682.15 435.96 672.20 458.16 C 660.46 484.78 637.64 506.26 610.30 516.26 C 586.68 525.08 559.96 525.28 536.20 516.82 C 524.31 512.68 513.33 506.25 503.45 498.49 C 503.12 498.39 502.45 498.20 502.11 498.10 C 484.47 515.04 467.58 532.81 449.99 549.80 C 432.30 532.90 415.44 515.07 397.81 498.09 C 395.90 498.26 394.58 500.09 393.00 501.06 C 363.36 524.01 321.49 529.41 286.86 515.18 C 266.75 507.15 249.19 492.91 237.09 474.96 C 223.82 455.47 217.25 431.57 218.62 408.04 C 219.68 384.67 228.99 362.05 243.77 344.01 C 227.86 328.07 212.03 312.04 195.94 296.29 C 181.58 319.58 170.76 345.04 163.49 371.42 M 263.32 371.34 C 253.22 386.42 249.13 405.16 251.21 423.12 C 253.50 443.05 264.06 461.84 279.86 474.19 C 294.47 485.83 313.45 491.73 332.08 490.65 C 347.60 489.92 362.62 484.07 374.99 474.77 C 347.79 447.39 320.42 420.17 293.15 392.85 C 284.37 384.30 276.01 375.28 267.00 367.00 C 265.24 367.82 264.47 369.87 263.32 371.34 M 525.31 474.24 C 542.12 488.32 565.62 493.10 586.96 489.23 C 607.01 485.58 625.25 473.41 636.50 456.44 C 654.73 429.88 653.80 391.39 633.19 366.41 C 597.32 402.45 561.26 438.30 525.31 474.24 Z" />
<path fill="#04795b" opacity="1.00" d=" M 342.70 214.70 C 401.34 187.75 470.19 184.38 531.41 204.54 C 569.44 216.94 604.16 238.81 632.39 267.09 C 620.86 279.31 608.62 290.85 596.85 302.85 C 547.88 351.74 499.07 400.79 450.00 449.58 C 392.60 392.46 335.40 335.13 278.12 277.88 C 274.61 274.29 270.88 270.90 267.60 267.09 C 289.33 245.44 314.75 227.42 342.70 214.70 Z" />
</g>
<g id="#efefefff">
<path fill="#efefef" opacity="1.00" d=" M 395.07 158.08 C 446.51 148.43 500.51 152.52 549.79 170.23 C 598.92 187.65 643.03 218.56 676.75 258.25 C 679.53 261.78 682.64 265.11 684.91 269.01 C 678.51 276.20 671.31 282.68 664.62 289.62 C 593.01 361.20 521.46 432.83 449.88 504.43 C 435.67 490.88 422.11 476.65 408.05 462.94 C 344.66 399.67 281.46 336.20 217.97 273.03 C 216.75 271.77 215.56 270.49 214.40 269.18 C 235.51 242.11 260.98 218.39 289.93 199.91 C 321.86 179.39 357.75 165.03 395.07 158.08 M 342.70 214.70 C 314.75 227.42 289.33 245.44 267.60 267.09 C 270.88 270.90 274.61 274.29 278.12 277.88 C 335.40 335.13 392.60 392.46 450.00 449.58 C 499.07 400.79 547.88 351.74 596.85 302.85 C 608.62 290.85 620.86 279.31 632.39 267.09 C 604.16 238.81 569.44 216.94 531.41 204.54 C 470.19 184.38 401.34 187.75 342.70 214.70 Z" />
<path fill="#efefef" opacity="1.00" d=" M 163.49 371.42 C 170.76 345.04 181.58 319.58 195.94 296.29 C 212.03 312.04 227.86 328.07 243.77 344.01 C 228.99 362.05 219.68 384.67 218.62 408.04 C 217.25 431.57 223.82 455.47 237.09 474.96 C 249.19 492.91 266.75 507.15 286.86 515.18 C 321.49 529.41 363.36 524.01 393.00 501.06 C 394.58 500.09 395.90 498.26 397.81 498.09 C 415.44 515.07 432.30 532.90 449.99 549.80 C 467.58 532.81 484.47 515.04 502.11 498.10 C 502.45 498.20 503.12 498.39 503.45 498.49 C 513.33 506.25 524.31 512.68 536.20 516.82 C 559.96 525.28 586.68 525.08 610.30 516.26 C 637.64 506.26 660.46 484.78 672.20 458.16 C 682.15 435.96 684.13 410.39 678.12 386.85 C 674.20 371.10 666.31 356.56 656.17 343.95 C 672.10 328.05 687.89 311.99 703.99 296.27 C 725.51 331.03 739.18 370.58 744.26 411.12 C 749.51 454.72 745.79 499.54 732.12 541.35 C 712.86 601.14 673.88 654.27 622.83 690.83 C 592.52 712.66 558.04 728.69 521.80 737.72 C 477.07 748.85 429.76 749.42 384.77 739.40 C 321.74 725.49 263.80 690.07 222.40 640.58 C 200.17 614.12 182.57 583.78 170.78 551.29 C 149.83 494.00 147.37 430.22 163.49 371.42 Z" />
<path fill="#efefef" opacity="1.00" d=" M 263.32 371.34 C 264.47 369.87 265.24 367.82 267.00 367.00 C 276.01 375.28 284.37 384.30 293.15 392.85 C 320.42 420.17 347.79 447.39 374.99 474.77 C 362.62 484.07 347.60 489.92 332.08 490.65 C 313.45 491.73 294.47 485.83 279.86 474.19 C 264.06 461.84 253.50 443.05 251.21 423.12 C 249.13 405.16 253.22 386.42 263.32 371.34 Z" />
<path fill="#efefef" opacity="1.00" d=" M 525.31 474.24 C 561.26 438.30 597.32 402.45 633.19 366.41 C 653.80 391.39 654.73 429.88 636.50 456.44 C 625.25 473.41 607.01 485.58 586.96 489.23 C 565.62 493.10 542.12 488.32 525.31 474.24 Z" />
</g>
</svg>
