<svg width="43" height="48" viewBox="0 0 43 48" fill="none" xmlns="http://www.w3.org/2000/svg">
<path fill-rule="evenodd" clip-rule="evenodd" d="M20.5971 0.242242C21.1558 -0.0807474 21.8442 -0.0807474 22.4029 0.242242L41.5972 11.3388C42.1559 11.6618 42.5 12.2586 42.5 12.9046V35.0954C42.5 35.7414 42.1559 36.3382 41.5972 36.6612L22.4029 47.7578C21.8442 48.0807 21.1558 48.0807 20.5971 47.7578L1.40281 36.6612C0.844147 36.3382 0.5 35.7414 0.5 35.0954V12.9046C0.5 12.2586 0.844147 11.6618 1.40281 11.3388L20.5971 0.242242ZM4.11135 13.9484V34.0516L21.5 44.1043L38.8886 34.0516V13.9484L21.5 3.89571L4.11135 13.9484Z" fill="#000"/>
<path fill-rule="evenodd" clip-rule="evenodd" d="M20.5973 22.4353C21.1559 22.1124 21.8441 22.1124 22.4027 22.4353L41.597 33.5296C42.1558 33.8525 42.5 34.4495 42.5 35.0954C42.5 35.7414 42.1559 36.3382 41.5972 36.6612L22.4029 47.7578C21.8442 48.0807 21.1558 48.0807 20.5971 47.7578L1.40281 36.6612C0.844147 36.3382 0.5 35.7414 0.5 35.0954C0.500029 34.4495 0.844232 33.8525 1.40295 33.5296L20.5973 22.4353ZM5.91718 35.0956L21.5 44.1043L37.0828 35.0956L21.5 26.0887L5.91718 35.0956Z" fill="#000"/>
<path fill-rule="evenodd" clip-rule="evenodd" d="M23.0638 8.30096C23.5624 9.16571 23.2665 10.2715 22.4028 10.7707L10.5102 17.6458V31.3981C10.5102 32.3966 9.70178 33.2061 8.70454 33.2061C7.70729 33.2061 6.89886 32.3966 6.89886 31.3981V16.6019C6.89886 15.956 7.24302 15.3591 7.8017 15.0361L20.5972 7.63918C21.4608 7.13992 22.5651 7.43621 23.0638 8.30096Z" fill="#000"/>
<path fill-rule="evenodd" clip-rule="evenodd" d="M21.5 0C22.4972 0 23.3057 0.809467 23.3057 1.80799V24.0011C23.3057 24.6471 22.9615 25.244 22.4027 25.567C21.844 25.8899 21.1556 25.8898 20.597 25.5668L7.80149 18.1676C6.93792 17.6682 6.64216 16.5624 7.14089 15.6977C7.63963 14.833 8.744 14.5369 9.60758 15.0363L19.6943 20.8691V1.80799C19.6943 0.809467 20.5028 0 21.5 0Z" fill="#000"/>
</svg>
