<svg width="919" height="918" xmlns="http://www.w3.org/2000/svg" xmlns:xlink="http://www.w3.org/1999/xlink" xml:space="preserve" overflow="hidden"><defs><clipPath id="clip0"><rect x="2147" y="1176" width="919" height="918"/></clipPath></defs><g clip-path="url(#clip0)" transform="translate(-2147 -1176)"><path d="M2606.5 1176C2860.24 1176 3066 1381.54 3066 1635 3066 1888.46 2860.24 2094 2606.5 2094 2352.76 2094 2147 1888.46 2147 1635 2147 1381.54 2352.76 1176 2606.5 1176L2606.5 1176Z" fill="#B2B6C5" fill-rule="evenodd"/><g><g><g><path d="M215.072 2.52946C220.906-0.843154 228.094-0.843154 233.928 2.52946L434.352 118.398C440.186 121.771 443.779 128.003 443.779 134.748L443.779 366.462C443.779 373.207 440.186 379.439 434.352 382.811L233.928 498.681C228.094 502.052 220.906 502.052 215.072 498.681L14.648 382.811C8.81447 379.439 5.22093 373.207 5.22093 366.462L5.22093 134.748C5.22093 128.003 8.81447 121.771 14.648 118.398L215.072 2.52946ZM42.9302 145.647 42.9302 355.562 224.5 460.531 406.07 355.562 406.07 145.647 224.5 40.6785 42.9302 145.647Z" fill-rule="evenodd" transform="matrix(1 0 0 1.00158 2382 1384)"/><path d="M215.074 234.266C220.907 230.895 228.093 230.895 233.926 234.266L434.35 350.112C440.185 353.483 443.779 359.717 443.779 366.462 443.779 373.207 440.186 379.439 434.352 382.811L233.928 498.681C228.094 502.052 220.906 502.052 215.072 498.681L14.648 382.811C8.81447 379.439 5.22093 373.207 5.22093 366.462 5.22124 359.717 8.81536 353.483 14.6494 350.112L215.074 234.266ZM61.7864 366.464 224.5 460.531 387.214 366.464 224.5 272.415 61.7864 366.464Z" fill-rule="evenodd" transform="matrix(1 0 0 1.00158 2382 1384)"/><path d="M240.829 86.6775C246.035 95.7071 242.946 107.254 233.927 112.466L109.746 184.255 109.746 327.855C109.746 338.281 101.305 346.734 90.8916 346.734 80.4785 346.734 72.037 338.281 72.037 327.855L72.037 173.355C72.037 166.61 75.6307 160.378 81.4643 157.005L215.073 79.7673C224.091 74.5541 235.622 77.6479 240.829 86.6775Z" fill-rule="evenodd" transform="matrix(1 0 0 1.00158 2382 1384)"/><path d="M224.5 0C234.913 0 243.355 8.45235 243.355 18.8788L243.355 250.616C243.355 257.362 239.761 263.594 233.926 266.967 228.092 270.339 220.904 270.338 215.071 266.965L81.4621 189.704C72.4448 184.489 69.3566 172.942 74.5642 163.913 79.772 154.884 91.3037 151.792 100.321 157.007L205.645 217.912 205.645 18.8788C205.645 8.45235 214.088 0 224.5 0Z" fill-rule="evenodd" transform="matrix(1 0 0 1.00158 2382 1384)"/></g></g></g></g></svg>