<svg width="919" height="918" xmlns="http://www.w3.org/2000/svg" xmlns:xlink="http://www.w3.org/1999/xlink" xml:space="preserve" overflow="hidden"><defs><clipPath id="clip0"><rect x="1128" y="1176" width="919" height="918"/></clipPath></defs><g clip-path="url(#clip0)" transform="translate(-1128 -1176)"><path d="M1587.5 1176C1841.24 1176 2047 1381.54 2047 1635 2047 1888.46 1841.24 2094 1587.5 2094 1333.76 2094 1128 1888.46 1128 1635 1128 1381.54 1333.76 1176 1587.5 1176L1587.5 1176Z" fill="#B2B6C5" fill-rule="evenodd"/><g><g><g><path d="M7.47505 42.7048C7.47505 20.2999 25.6377 2.13722 48.0427 2.13722L346.962 2.13722C369.367 2.13722 387.529 20.2999 387.529 42.7048L387.529 371.839C387.529 386.495 379.624 400.011 366.85 407.197L217.391 491.268C205.041 498.215 189.963 498.215 177.613 491.268L28.1539 407.197C15.3801 400.011 7.47505 386.495 7.47505 371.839L7.47505 42.7048ZM48.0427 40.5697C46.8634 40.5697 45.9075 41.5256 45.9075 42.7048L45.9075 371.839C45.9075 372.611 46.3236 373.322 46.9958 373.7L196.455 457.771C197.105 458.137 197.899 458.137 198.548 457.771L348.008 373.7C348.68 373.322 349.097 372.611 349.097 371.839L349.097 42.7048C349.097 41.5256 348.141 40.5697 346.962 40.5697L48.0427 40.5697Z" fill-rule="evenodd" transform="matrix(1 0 0 1.00049 1390 1384)"/><path d="M177.613 277.385C189.963 270.438 205.041 270.438 217.391 277.385L377.734 367.578 358.892 401.074 198.548 310.882C197.899 310.516 197.105 310.516 196.455 310.882L36.1123 401.074 17.2704 367.578 177.613 277.385Z" fill-rule="evenodd" transform="matrix(1 0 0 1.00049 1390 1384)"/><path d="M177.613 202.655C189.963 195.709 205.041 195.709 217.391 202.655L377.734 292.849 358.892 326.345 198.548 236.152C197.899 235.786 197.105 235.786 196.455 236.152L36.1123 326.345 17.2704 292.849 177.613 202.655Z" fill-rule="evenodd" transform="matrix(1 0 0 1.00049 1390 1384)"/><path d="M177.613 127.926C189.963 120.979 205.041 120.979 217.391 127.926L377.734 218.119 358.892 251.615 198.548 161.423C197.899 161.056 197.105 161.056 196.455 161.423L36.1123 251.615 17.2704 218.119 177.613 127.926Z" fill-rule="evenodd" transform="matrix(1 0 0 1.00049 1390 1384)"/></g></g></g></g></svg>