<svg width="37" height="47" viewBox="0 0 37 47" fill="none" xmlns="http://www.w3.org/2000/svg">
<path fill-rule="evenodd" clip-rule="evenodd" d="M0.700195 4.0002C0.700195 1.90151 2.40151 0.200195 4.5002 0.200195H32.5002C34.5989 0.200195 36.3002 1.90151 36.3002 4.0002V34.8305C36.3002 36.2033 35.5597 37.4694 34.3632 38.1425L20.3632 46.0175C19.2064 46.6682 17.794 46.6682 16.6372 46.0175L2.6372 38.1425C1.44067 37.4694 0.700195 36.2033 0.700195 34.8305V4.0002ZM4.5002 3.8002C4.38974 3.8002 4.3002 3.88974 4.3002 4.0002V34.8305C4.3002 34.9028 4.33917 34.9694 4.40214 35.0048L18.4021 42.8798C18.463 42.9141 18.5374 42.9141 18.5982 42.8798L32.5982 35.0048C32.6612 34.9694 32.7002 34.9028 32.7002 34.8305V4.0002C32.7002 3.88974 32.6107 3.8002 32.5002 3.8002H4.5002Z" fill="#000"/>
<path fill-rule="evenodd" clip-rule="evenodd" d="M16.6372 25.9829C17.794 25.3322 19.2064 25.3322 20.3632 25.9829L35.3827 34.4314L33.6177 37.569L18.5982 29.1206C18.5374 29.0863 18.463 29.0863 18.4021 29.1206L3.38267 37.569L1.61773 34.4314L16.6372 25.9829Z" fill="#000"/>
<path fill-rule="evenodd" clip-rule="evenodd" d="M16.6372 18.9829C17.794 18.3322 19.2064 18.3322 20.3632 18.9829L35.3827 27.4314L33.6177 30.569L18.5982 22.1206C18.5374 22.0863 18.463 22.0863 18.4021 22.1206L3.38267 30.569L1.61773 27.4314L16.6372 18.9829Z" fill="#000"/>
<path fill-rule="evenodd" clip-rule="evenodd" d="M16.6372 11.9829C17.794 11.3322 19.2064 11.3322 20.3632 11.9829L35.3827 20.4314L33.6177 23.569L18.5982 15.1206C18.5374 15.0863 18.463 15.0863 18.4021 15.1206L3.38267 23.569L1.61773 20.4314L16.6372 11.9829Z" fill="#000"/>
</svg>
