<svg width="919" height="918" xmlns="http://www.w3.org/2000/svg" xmlns:xlink="http://www.w3.org/1999/xlink" xml:space="preserve" overflow="hidden"><defs><clipPath id="clip0"><rect x="110" y="1176" width="919" height="918"/></clipPath></defs><g clip-path="url(#clip0)" transform="translate(-110 -1176)"><path d="M569.5 1176C823.236 1176 1029 1381.54 1029 1635 1029 1888.46 823.236 2094 569.5 2094 315.764 2094 110 1888.46 110 1635 110 1381.54 315.764 1176 569.5 1176L569.5 1176Z" fill="#1D1D1D" fill-rule="evenodd"/><g><g><g><g><path d="M396.669 500.98 0 500.98 0 82.3558 90.7585 82.3558 90.7585 419.85 396.669 419.85 396.669 500.936 396.669 500.98Z" fill="#61DFFF" transform="matrix(1.00035 0 0 1 329 1384)"/><path d="M396.669 163.443C441.38 163.443 477.626 127.139 477.626 82.3558 477.626 37.5727 441.38 1.26894 396.669 1.26894 351.958 1.26894 315.712 37.5727 315.712 82.3558 315.712 127.139 351.958 163.443 396.669 163.443Z" fill="#61DFFF" transform="matrix(1.00035 0 0 1 329 1384)"/></g></g></g></g></g></svg>