<?xml version="1.0" encoding="UTF-8" ?>
<!DOCTYPE svg PUBLIC "-//W3C//DTD SVG 1.1//EN" "http://www.w3.org/Graphics/SVG/1.1/DTD/svg11.dtd">
<svg width="400pt" height="400pt" viewBox="0 0 400 400" version="1.1" xmlns="http://www.w3.org/2000/svg">
<g id="#7f3ce0ff">
<path fill="#7f3ce0" opacity="1.00" d=" M 195.46 0.00 L 204.53 0.00 C 241.37 0.88 277.98 11.96 308.81 32.20 C 337.26 50.58 360.87 76.36 376.71 106.29 C 391.36 133.64 399.24 164.47 400.00 195.46 L 400.00 204.57 C 399.17 237.96 390.06 271.16 373.21 300.03 C 346.31 346.96 299.60 382.03 246.92 394.46 C 233.05 397.85 218.81 399.57 204.55 400.00 L 195.49 400.00 C 158.64 399.12 122.01 388.04 91.17 367.79 C 63.16 349.68 39.83 324.40 24.00 295.05 C 8.91 267.36 0.77 236.03 0.00 204.53 L 0.00 195.44 C 0.65 171.55 5.36 147.73 14.32 125.55 C 28.37 90.43 52.66 59.51 83.41 37.49 C 115.83 14.03 155.47 0.88 195.46 0.00 M 193.52 64.73 C 188.60 65.87 184.35 68.73 180.00 71.15 C 150.46 87.90 120.92 104.65 91.38 121.40 C 83.30 125.90 77.54 134.63 77.39 143.99 C 77.36 180.32 77.40 216.66 77.37 252.99 C 77.21 262.64 83.01 271.86 91.39 276.47 C 122.90 294.33 154.41 312.21 185.92 330.08 C 194.17 334.96 204.93 335.13 213.34 330.51 C 244.86 312.60 276.42 294.74 307.95 276.84 C 316.37 272.47 322.39 263.59 322.61 254.02 C 322.66 217.67 322.60 181.32 322.64 144.96 C 322.80 135.51 317.29 126.47 309.20 121.74 C 277.28 103.64 245.36 85.53 213.44 67.42 C 207.43 64.10 200.19 63.17 193.52 64.73 Z" />
<path fill="#7f3ce0" opacity="1.00" d=" M 194.76 83.63 C 197.69 81.80 201.63 81.47 204.63 83.31 C 236.34 101.26 268.03 119.24 299.72 137.22 C 302.56 138.69 304.27 141.87 304.24 145.03 C 304.30 153.40 304.21 161.76 304.26 170.12 C 297.58 178.21 289.12 186.65 278.11 187.60 C 225.76 187.67 173.40 187.59 121.05 187.64 C 111.80 187.71 103.01 191.69 95.76 197.22 C 95.75 179.81 95.74 162.39 95.76 144.98 C 95.65 141.76 97.50 138.66 100.35 137.20 C 131.80 119.30 163.30 101.51 194.76 83.63 M 133.41 145.92 C 133.31 155.29 133.44 164.66 133.35 174.03 C 139.48 174.24 145.62 174.07 151.75 174.14 C 151.75 165.09 151.74 156.05 151.75 147.01 C 159.42 147.00 167.09 146.99 174.75 147.01 C 174.75 156.04 174.73 165.08 174.76 174.11 C 180.88 174.14 187.00 174.13 193.12 174.12 C 193.09 164.77 193.21 155.43 193.07 146.09 C 192.89 137.16 184.98 129.38 176.11 129.04 C 167.74 128.94 159.37 129.02 150.99 129.01 C 141.96 129.07 133.67 136.83 133.41 145.92 M 217.42 130.68 C 211.15 133.51 206.81 140.12 206.89 147.02 C 206.84 156.05 206.89 165.08 206.89 174.12 C 213.00 174.14 219.12 174.12 225.25 174.13 C 225.26 165.09 225.25 156.05 225.25 147.01 C 232.91 146.99 240.58 147.00 248.25 147.01 C 248.26 156.03 248.24 165.06 248.26 174.09 C 254.39 174.12 260.52 174.23 266.65 174.02 C 266.56 164.66 266.69 155.30 266.60 145.95 C 266.32 137.59 259.33 130.22 251.08 129.18 C 245.40 128.75 239.69 129.12 234.00 129.00 C 228.47 129.23 222.58 128.10 217.42 130.68 Z" />
<path fill="#7f3ce0" opacity="1.00" d=" M 276.96 205.74 C 286.92 205.80 296.37 201.55 304.25 195.69 C 304.24 214.78 304.27 233.88 304.24 252.97 C 304.30 256.41 302.08 259.56 299.04 261.04 C 268.83 278.18 238.61 295.29 208.41 312.44 C 204.63 314.94 199.65 317.30 195.34 314.53 C 163.86 296.76 132.46 278.85 100.99 261.08 C 97.97 259.57 95.68 256.46 95.77 253.00 C 95.71 243.06 95.77 233.11 95.75 223.16 C 101.90 215.37 109.62 207.10 120.00 205.80 C 172.32 205.66 224.64 205.80 276.96 205.74 M 133.39 219.27 C 133.37 228.53 133.36 237.80 133.39 247.06 C 133.42 256.34 141.91 264.37 151.09 264.36 C 159.38 264.37 167.66 264.42 175.94 264.34 C 184.95 264.03 193.00 256.08 193.08 247.00 C 193.21 237.75 193.07 228.50 193.14 219.25 C 187.01 219.25 180.88 219.25 174.76 219.25 C 174.68 228.31 174.86 237.38 174.66 246.44 C 167.03 246.29 159.40 246.43 151.77 246.36 C 151.72 237.32 151.76 228.29 151.75 219.25 C 145.63 219.25 139.51 219.23 133.39 219.27 M 206.91 219.26 C 206.88 228.50 206.82 237.75 206.92 246.99 C 207.00 256.08 215.02 263.95 224.01 264.34 C 230.66 264.46 237.32 264.32 243.97 264.38 C 247.64 264.38 251.46 264.65 254.92 263.19 C 261.57 260.81 266.45 254.20 266.59 247.12 C 266.69 237.83 266.58 228.53 266.64 219.25 C 260.51 219.26 254.38 219.24 248.25 219.25 C 248.25 228.29 248.25 237.33 248.26 246.37 C 240.57 246.30 232.88 246.54 225.20 246.24 C 225.29 237.24 225.25 228.24 225.23 219.25 C 219.12 219.26 213.01 219.24 206.91 219.26 Z" />
</g>
<g id="#ffffffff">
<path fill="#ffffff" opacity="1.00" d=" M 193.52 64.73 C 200.19 63.17 207.43 64.10 213.44 67.42 C 245.36 85.53 277.28 103.64 309.20 121.74 C 317.29 126.47 322.80 135.51 322.64 144.96 C 322.60 181.32 322.66 217.67 322.61 254.02 C 322.39 263.59 316.37 272.47 307.95 276.84 C 276.42 294.74 244.86 312.60 213.34 330.51 C 204.93 335.13 194.17 334.96 185.92 330.08 C 154.41 312.21 122.90 294.33 91.39 276.47 C 83.01 271.86 77.21 262.64 77.37 252.99 C 77.40 216.66 77.36 180.32 77.39 143.99 C 77.54 134.63 83.30 125.90 91.38 121.40 C 120.92 104.65 150.46 87.90 180.00 71.15 C 184.35 68.73 188.60 65.87 193.52 64.73 M 194.76 83.63 C 163.30 101.51 131.80 119.30 100.35 137.20 C 97.50 138.66 95.65 141.76 95.76 144.98 C 95.74 162.39 95.75 179.81 95.76 197.22 C 103.01 191.69 111.80 187.71 121.05 187.64 C 173.40 187.59 225.76 187.67 278.11 187.60 C 289.12 186.65 297.58 178.21 304.26 170.12 C 304.21 161.76 304.30 153.40 304.24 145.03 C 304.27 141.87 302.56 138.69 299.72 137.22 C 268.03 119.24 236.34 101.26 204.63 83.31 C 201.63 81.47 197.69 81.80 194.76 83.63 M 276.96 205.74 C 224.64 205.80 172.32 205.66 120.00 205.80 C 109.62 207.10 101.90 215.37 95.75 223.16 C 95.77 233.11 95.71 243.06 95.77 253.00 C 95.68 256.46 97.97 259.57 100.99 261.08 C 132.46 278.85 163.86 296.76 195.34 314.53 C 199.65 317.30 204.63 314.94 208.41 312.44 C 238.61 295.29 268.83 278.18 299.04 261.04 C 302.08 259.56 304.30 256.41 304.24 252.97 C 304.27 233.88 304.24 214.78 304.25 195.69 C 296.37 201.55 286.92 205.80 276.96 205.74 Z" />
<path fill="#ffffff" opacity="1.00" d=" M 133.41 145.92 C 133.67 136.83 141.96 129.07 150.99 129.01 C 159.37 129.02 167.74 128.94 176.11 129.04 C 184.98 129.38 192.89 137.16 193.07 146.09 C 193.21 155.43 193.09 164.77 193.12 174.12 C 187.00 174.13 180.88 174.14 174.76 174.11 C 174.73 165.08 174.75 156.04 174.75 147.01 C 167.09 146.99 159.42 147.00 151.75 147.01 C 151.74 156.05 151.75 165.09 151.75 174.14 C 145.62 174.07 139.48 174.24 133.35 174.03 C 133.44 164.66 133.31 155.29 133.41 145.92 Z" />
<path fill="#ffffff" opacity="1.00" d=" M 217.42 130.68 C 222.58 128.10 228.47 129.23 234.00 129.00 C 239.69 129.12 245.40 128.75 251.08 129.18 C 259.33 130.22 266.32 137.59 266.60 145.95 C 266.69 155.30 266.56 164.66 266.65 174.02 C 260.52 174.23 254.39 174.12 248.26 174.09 C 248.24 165.06 248.26 156.03 248.25 147.01 C 240.58 147.00 232.91 146.99 225.25 147.01 C 225.25 156.05 225.26 165.09 225.25 174.13 C 219.12 174.12 213.00 174.14 206.89 174.12 C 206.89 165.08 206.84 156.05 206.89 147.02 C 206.81 140.12 211.15 133.51 217.42 130.68 Z" />
<path fill="#ffffff" opacity="1.00" d=" M 133.39 219.27 C 139.51 219.23 145.63 219.25 151.75 219.25 C 151.76 228.29 151.72 237.32 151.77 246.36 C 159.40 246.43 167.03 246.29 174.66 246.44 C 174.86 237.38 174.68 228.31 174.76 219.25 C 180.88 219.25 187.01 219.25 193.14 219.25 C 193.07 228.50 193.21 237.75 193.08 247.00 C 193.00 256.08 184.95 264.03 175.94 264.34 C 167.66 264.42 159.38 264.37 151.09 264.36 C 141.91 264.37 133.42 256.34 133.39 247.06 C 133.36 237.80 133.37 228.53 133.39 219.27 Z" />
<path fill="#ffffff" opacity="1.00" d=" M 206.91 219.26 C 213.01 219.24 219.12 219.26 225.23 219.25 C 225.25 228.24 225.29 237.24 225.20 246.24 C 232.88 246.54 240.57 246.30 248.26 246.37 C 248.25 237.33 248.25 228.29 248.25 219.25 C 254.38 219.24 260.51 219.26 266.64 219.25 C 266.58 228.53 266.69 237.83 266.59 247.12 C 266.45 254.20 261.57 260.81 254.92 263.19 C 251.46 264.65 247.64 264.38 243.97 264.38 C 237.32 264.32 230.66 264.46 224.01 264.34 C 215.02 263.95 207.00 256.08 206.92 246.99 C 206.82 237.75 206.88 228.50 206.91 219.26 Z" />
</g>
</svg>
