<svg width="919" height="919" xmlns="http://www.w3.org/2000/svg" xmlns:xlink="http://www.w3.org/1999/xlink" xml:space="preserve" overflow="hidden"><g transform="translate(-110 -77)"><path d="M569.5 77C823.236 77 1029 282.764 1029 536.5 1029 790.236 823.236 996 569.5 996 315.764 996 110 790.236 110 536.5 110 282.764 315.764 77 569.5 77L569.5 77Z" fill="#1473E9" fill-rule="evenodd"/><path d="M422.092 373.232C421.632 349.528 441.087 326.742 465.309 326.053 533.669 325.962 602.052 326.076 670.412 326.007 693.828 325.548 714.895 346.312 715.309 369.58 715.632 401.461 715.402 433.364 715.402 465.245 716.944 488.054 697.742 511.344 674.464 512.102 686.736 515.731 699.538 521.175 706.744 532.361 713.536 541.411 716.023 552.826 715.954 563.966 716.046 588.474 715.931 612.982 716 637.513 715.931 648.285 714.757 659.655 708.816 668.957 702.853 677.433 694.495 683.795 686.391 690.135 665.738 706.833 645.062 723.509 624.178 739.932 622.313 739.702 618.56 739.243 616.695 739.036 615.084 682.325 616.903 625.5 615.774 568.767 614.83 551.976 599.98 537.024 583.011 536.702 563.67 536.472 544.329 536.702 524.989 536.587 520.591 541.663 522.134 548.623 521.926 554.756 521.904 614.567 522.065 674.401 521.834 734.212 522.893 739.61 515.48 741.7 512.049 738.462 494.412 724.565 476.706 710.715 459.323 696.428 449.491 688.022 438.302 680.924 430.358 670.519 423.727 661.791 422.023 650.467 422 639.787 422.069 550.943 421.931 462.099 422.092 373.232M523.262 374.219C521.512 377.435 522.111 381.317 521.88 384.854 522.111 417.011 521.811 449.167 521.996 481.324 521.512 484.907 523.377 490.121 527.798 489.455 546.171 489.685 564.545 489.593 582.895 489.547 600.555 488.812 615.337 473.239 615.982 455.782 616.143 432.905 615.844 410.005 616.074 387.128 616.212 382.511 615.659 377.94 614.715 373.461 593.51 371.279 572.051 373.002 550.753 372.474 541.636 373.094 531.965 370.866 523.262 374.219Z" fill="#1473E9" fill-rule="evenodd"/><path d="M386.385 257.5C415.853 256.374 445.39 257.569 474.881 257.109 567.124 257.385 659.367 256.558 751.61 257.5 768.459 263.242 783.17 277.757 784.848 296.063 784.986 420.067 784.802 544.071 784.94 668.097 784.71 678.295 786.296 689.228 781.17 698.576 777.561 706.66 771.148 713 764.183 718.282 706.442 764.632 648.633 810.889 590.937 857.307 578.778 867.068 560.964 867.688 548.39 858.318 488.397 810.475 428.725 762.22 368.754 714.355 361.559 708.291 356.181 699.931 353.882 690.79 352.457 682.475 353.216 674 353.101 665.617 353.193 542.394 353.055 419.171 353.17 295.948 354.779 277.643 369.467 263.173 386.385 257.5M422.312 373.993C422.151 462.856 422.289 551.696 422.22 640.536 422.243 651.216 423.944 662.539 430.564 671.267 438.494 681.671 449.665 688.768 459.48 697.175 476.835 711.461 494.511 725.31 512.118 739.206 515.543 742.444 522.945 740.354 521.887 734.957 522.117 675.148 521.956 615.317 521.979 555.508 522.186 549.376 520.646 542.417 525.036 537.341 544.345 537.456 563.653 537.226 582.961 537.456 599.902 537.777 614.728 552.729 615.671 569.519 616.797 626.25 614.981 683.072 616.59 739.78 618.452 739.987 622.198 740.446 624.06 740.676 644.909 724.254 665.55 707.579 686.169 690.882 694.26 684.542 702.604 678.18 708.557 669.705 714.488 660.403 715.66 649.034 715.729 638.262 715.66 613.732 715.775 589.225 715.683 564.719 715.752 553.579 713.269 542.164 706.488 533.115 699.294 521.929 686.513 516.486 674.262 512.857 697.501 512.099 716.671 488.81 715.131 466.003 715.131 434.123 715.361 402.221 715.039 370.341 714.625 347.075 693.593 326.312 670.216 326.771 601.971 326.84 533.702 326.725 465.456 326.817 441.275 327.506 421.852 350.29 422.312 373.993Z" fill="#FCFDFE" fill-rule="evenodd"/><path d="M523.378 374.901C532.062 371.555 541.71 373.778 550.807 373.159 572.056 373.686 593.466 371.968 614.624 374.144 615.566 378.612 616.117 383.172 615.979 387.777 615.749 410.598 616.048 433.441 615.887 456.262 615.244 473.675 600.496 489.21 582.876 489.943 564.568 489.988 546.236 490.08 527.904 489.851 523.493 490.515 521.633 485.314 522.115 481.74 521.931 449.663 522.23 417.586 522 385.509 522.23 381.98 521.633 378.108 523.378 374.901Z" fill="#FCFDFE" fill-rule="evenodd"/></g></svg>