<?xml version="1.0" encoding="UTF-8" ?>
<!DOCTYPE svg PUBLIC "-//W3C//DTD SVG 1.1//EN" "http://www.w3.org/Graphics/SVG/1.1/DTD/svg11.dtd">
<svg width="400pt" height="400pt" viewBox="0 0 400 400" version="1.1" xmlns="http://www.w3.org/2000/svg">
<g id="#1473e9ff">
<path fill="#1473e9" opacity="1.00" d=" M 0.00 0.00 L 400.00 0.00 L 400.00 400.00 L 0.00 400.00 L 0.00 0.00 M 120.55 78.23 C 113.19 80.70 106.80 87.00 106.10 94.97 C 106.05 148.62 106.11 202.27 106.07 255.92 C 106.12 259.57 105.79 263.26 106.41 266.88 C 107.41 270.86 109.75 274.50 112.88 277.14 C 138.97 297.98 164.93 318.99 191.03 339.82 C 196.50 343.90 204.25 343.63 209.54 339.38 C 234.64 319.17 259.79 299.03 284.91 278.85 C 287.94 276.55 290.73 273.79 292.30 270.27 C 294.53 266.20 293.84 261.44 293.94 257.00 C 293.88 203.00 293.96 149.01 293.90 95.02 C 293.17 87.05 286.77 80.73 279.44 78.23 C 239.31 77.82 199.18 78.18 159.05 78.06 C 146.22 78.26 133.37 77.74 120.55 78.23 Z" />
<path fill="#1473e9" opacity="1.00" d=" M 136.18 128.95 C 135.98 118.63 144.43 108.71 154.95 108.41 C 184.64 108.37 214.34 108.42 244.03 108.39 C 254.20 108.19 263.35 117.23 263.53 127.36 C 263.67 141.24 263.57 155.13 263.57 169.01 C 264.24 178.94 255.90 189.08 245.79 189.41 C 251.12 190.99 256.68 193.36 259.81 198.23 C 262.76 202.17 263.84 207.14 263.81 211.99 C 263.85 222.66 263.80 233.33 263.83 244.01 C 263.80 248.70 263.29 253.65 260.71 257.70 C 258.12 261.39 254.49 264.16 250.97 266.92 C 242.00 274.19 233.02 281.45 223.95 288.60 C 223.14 288.50 221.51 288.30 220.70 288.21 C 220.00 263.52 220.79 238.78 220.30 214.08 C 219.89 206.77 213.44 200.26 206.07 200.12 C 197.67 200.02 189.27 200.12 180.87 200.07 C 178.96 202.28 179.63 205.31 179.54 207.98 C 179.53 234.02 179.60 260.07 179.50 286.11 C 179.96 288.46 176.74 289.37 175.25 287.96 C 167.59 281.91 159.90 275.88 152.35 269.66 C 148.08 266.00 143.22 262.91 139.77 258.38 C 136.89 254.58 136.15 249.65 136.14 245.00 C 136.17 206.32 136.11 167.64 136.18 128.95 M 180.12 129.38 C 179.36 130.78 179.62 132.47 179.52 134.01 C 179.62 148.01 179.49 162.01 179.57 176.01 C 179.36 177.57 180.17 179.84 182.09 179.55 C 190.07 179.65 198.05 179.61 206.02 179.59 C 213.69 179.27 220.11 172.49 220.39 164.89 C 220.46 154.93 220.33 144.96 220.43 135.00 C 220.49 132.99 220.25 131.00 219.84 129.05 C 210.63 128.10 201.31 128.85 192.06 128.62 C 188.10 128.89 183.90 127.92 180.12 129.38 Z" />
</g>
<g id="#fcfdfeff">
<path fill="#fcfdfe" opacity="1.00" d=" M 120.55 78.23 C 133.37 77.74 146.22 78.26 159.05 78.06 C 199.18 78.18 239.31 77.82 279.44 78.23 C 286.77 80.73 293.17 87.05 293.90 95.02 C 293.96 149.01 293.88 203.00 293.94 257.00 C 293.84 261.44 294.53 266.20 292.30 270.27 C 290.73 273.79 287.94 276.55 284.91 278.85 C 259.79 299.03 234.64 319.17 209.54 339.38 C 204.25 343.63 196.50 343.90 191.03 339.82 C 164.93 318.99 138.97 297.98 112.88 277.14 C 109.75 274.50 107.41 270.86 106.41 266.88 C 105.79 263.26 106.12 259.57 106.07 255.92 C 106.11 202.27 106.05 148.62 106.10 94.97 C 106.80 87.00 113.19 80.70 120.55 78.23 M 136.18 128.95 C 136.11 167.64 136.17 206.32 136.14 245.00 C 136.15 249.65 136.89 254.58 139.77 258.38 C 143.22 262.91 148.08 266.00 152.35 269.66 C 159.90 275.88 167.59 281.91 175.25 287.96 C 176.74 289.37 179.96 288.46 179.50 286.11 C 179.60 260.07 179.53 234.02 179.54 207.98 C 179.63 205.31 178.96 202.28 180.87 200.07 C 189.27 200.12 197.67 200.02 206.07 200.12 C 213.44 200.26 219.89 206.77 220.30 214.08 C 220.79 238.78 220.00 263.52 220.70 288.21 C 221.51 288.30 223.14 288.50 223.95 288.60 C 233.02 281.45 242.00 274.19 250.97 266.92 C 254.49 264.16 258.12 261.39 260.71 257.70 C 263.29 253.65 263.80 248.70 263.83 244.01 C 263.80 233.33 263.85 222.66 263.81 211.99 C 263.84 207.14 262.76 202.17 259.81 198.23 C 256.68 193.36 251.12 190.99 245.79 189.41 C 255.90 189.08 264.24 178.94 263.57 169.01 C 263.57 155.13 263.67 141.24 263.53 127.36 C 263.35 117.23 254.20 108.19 244.03 108.39 C 214.34 108.42 184.64 108.37 154.95 108.41 C 144.43 108.71 135.98 118.63 136.18 128.95 Z" />
<path fill="#fcfdfe" opacity="1.00" d=" M 180.12 129.38 C 183.90 127.92 188.10 128.89 192.06 128.62 C 201.31 128.85 210.63 128.10 219.84 129.05 C 220.25 131.00 220.49 132.99 220.43 135.00 C 220.33 144.96 220.46 154.93 220.39 164.89 C 220.11 172.49 213.69 179.27 206.02 179.59 C 198.05 179.61 190.07 179.65 182.09 179.55 C 180.17 179.84 179.36 177.57 179.57 176.01 C 179.49 162.01 179.62 148.01 179.52 134.01 C 179.62 132.47 179.36 130.78 180.12 129.38 Z" />
</g>
</svg>
