<svg width="863" height="862" xmlns="http://www.w3.org/2000/svg" xmlns:xlink="http://www.w3.org/1999/xlink" xml:space="preserve" overflow="hidden"><g transform="translate(-2147 -134)"><path d="M3010 565C3010 803.035 2816.82 996 2578.51 996 2340.2 996 2147 803.035 2147 565 2147 326.964 2340.2 134 2578.51 134 2816.82 134 3010 326.964 3010 565Z" fill="#29296E" fill-rule="evenodd"/><path d="M2779.71 449.537 2768.82 415.899C2766.6 409.055 2761.2 403.733 2754.34 401.633L2720.53 391.237C2715.85 389.807 2715.82 383.207 2720.46 381.702L2754.11 370.813C2760.94 368.601 2766.26 363.199 2768.37 356.331L2778.76 322.528C2780.19 317.859 2786.79 317.811 2788.29 322.463L2799.18 356.104C2801.39 362.935 2806.79 368.257 2813.66 370.37L2847.46 380.753C2852.14 382.193 2852.19 388.783 2847.54 390.288L2813.89 401.177C2807.06 403.389 2801.73 408.804 2799.62 415.669L2789.24 449.461C2787.81 454.141 2781.21 454.193 2779.71 449.537Z" fill="#FAFAFA" fill-rule="evenodd"/><path d="M2185 557.844C2195.28 537.514 2215.61 522.197 2236.73 512.518 2258.07 502.938 2281.52 497.059 2304.56 495.152 2351.07 490.912 2396.37 498.763 2437.64 512.335 2458.91 518.731 2477.93 527.612 2497.58 536.585 2507.14 541.225 2516.11 546.484 2525.36 551.565L2550.9 566.507C2578.94 583.859 2606.12 599.224 2631.66 611.162 2657.27 622.996 2680.41 631.002 2702.22 635.088 2724.03 639.229 2746.19 639.177 2773.46 632.861 2800.5 626.686 2830.93 613.368 2862.74 596.285 2894.74 579.192 2927.56 558.229 2965 537.745 2961.24 580.558 2949.24 620.703 2930.5 659.468 2911.29 697.769 2884.58 735.129 2845.63 765.385 2807.42 795.886 2754.95 817.144 2701.54 820.342 2648.1 823.987 2597.26 812.102 2554.01 794.223 2510.6 776.083 2473.08 752.247 2439.83 725.935 2430.65 718.666 2425.72 714.538 2418.94 708.752L2400 692.007C2387.24 681.925 2374.88 669.87 2362.25 659.881 2337.06 638.623 2312.13 617.326 2284.81 598.863 2271.03 589.48 2256.81 580.778 2240.7 573.068 2232.69 569.344 2224.19 565.874 2215.06 563.141 2205.71 560.06 2196.21 558.229 2185 557.844Z" fill="#FF4F0A" fill-rule="evenodd"/><path d="M2185 558.729C2190.25 515.054 2210.59 474.086 2243.19 439.215 2275.62 404.678 2326.29 378.055 2382.52 374.526 2410.27 372.673 2438.44 375.768 2464.33 382.949 2490.11 390.11 2514.27 400.538 2536.05 412.823 2546.93 418.996 2557.1 425.744 2567.24 432.557L2594.26 453.035 2636.44 486.343C2663.82 508.162 2689.95 528.347 2714.09 545.014 2738.47 561.708 2759.23 573.9 2779.06 581.047 2798.72 588.844 2823.54 590.838 2856.36 582.581 2872.65 578.822 2889.65 571.96 2907.78 564.521 2925.81 556.9 2944.53 547.813 2965 538.802 2962.54 560.762 2958.08 582.632 2949.61 603.072 2941.48 623.79 2930.77 644.061 2915.79 662.966 2908.12 672.169 2899.91 681.425 2890.34 689.961 2880.76 698.298 2870.15 706.208 2858.43 713.148 2835.05 726.713 2807.31 736.618 2778.86 740.146 2750.41 743.723 2721.84 741.935 2695.83 736.411 2669.68 731.043 2645.85 722.39 2623.98 712.395 2580.38 692.097 2543.91 666.584 2511.67 639.576 2495.48 626.091 2480.29 612.003 2465.92 597.703L2448.93 580.637C2443.81 575.692 2438.64 570.719 2433.52 566.168 2412.88 547.903 2393.73 533.946 2372.64 525.241 2351.69 516.128 2324.89 512.382 2292.01 518.542 2259.25 524.64 2223.32 538.816 2185 558.729Z" fill="#FAFAFA" fill-rule="evenodd"/><path d="M2360 783C2360 796.251 2349.25 807 2335.99 807 2322.74 807 2312 796.251 2312 783 2312 769.749 2322.74 759 2335.99 759 2349.25 759 2360 769.749 2360 783Z" fill="#FAFAFA" fill-rule="evenodd"/><path d="M2360 783C2360 796.251 2349.25 807 2335.99 807 2322.74 807 2312 796.251 2312 783 2312 769.749 2322.74 759 2335.99 759 2349.25 759 2360 769.749 2360 783Z" fill="#FAFAFA" fill-rule="evenodd"/></g></svg>